<svg xmlns="http://www.w3.org/2000/svg" width="128" height="128" viewBox="0 0 33.867 33.867">
    <path d="M31.75 16.933A14.817 14.817 0 0116.933 31.75 14.817 14.817 0 012.117 16.933 14.817 14.817 0 0116.933 2.117 14.817 14.817 0 0131.75 16.933" fill="#ffc107"/>
    <path d="M16.933 2.117A14.817 14.817 0 002.117 16.933a14.817 14.817 0 004.882 10.993 14.817 14.817 0 01-3.824-9.934A14.817 14.817 0 0117.992 3.175a14.817 14.817 0 019.934 3.824 14.817 14.817 0 00-10.993-4.882z" fill="#ffd54f"/>
    <path d="M17.078 31.895a14.817 14.817 0 0014.817-14.817 14.817 14.817 0 00-4.883-10.993 14.817 14.817 0 013.824 9.935A14.817 14.817 0 0116.02 30.836a14.817 14.817 0 01-9.935-3.824 14.817 14.817 0 0010.993 4.883z" fill="#ffa000"/>
    <path d="M18.52 22.864a2.117 2.117 0 01-2.116 2.117 2.117 2.117 0 01-2.117-2.117 2.117 2.117 0 012.117-2.117 2.117 2.117 0 012.117 2.117" fill="#ffd54f"/>
    <path d="M19.58 23.922a2.117 2.117 0 01-2.117 2.117 2.117 2.117 0 01-2.117-2.117 2.117 2.117 0 012.117-2.116 2.117 2.117 0 012.116 2.116" fill="#ffa000"/>
    <path d="M19.05 23.393a2.117 2.117 0 01-2.117 2.117 2.117 2.117 0 01-2.116-2.117 2.117 2.117 0 012.116-2.117 2.117 2.117 0 012.117 2.117" fill="#37474f"/>
    <path d="M.925.971l1.192 15.962C4.639 9.206 10.442 4.754 16.933 2.117z" fill="#f44336"/>
    <path d="M.925.971l1.192 15.962c.243-.745.517-1.458.819-2.144L1.983 2.03l13.043.934a35.833 35.833 0 011.907-.846L.925.97z" fill="#e57373"/>
    <path d="M13.968 1.904C8.877 4.327 4.396 8.012 1.878 13.731l.239 3.202C4.639 9.206 10.442 4.754 16.933 2.117l-2.965-.213z" fill="#d32f2f"/>
    <path d="M14.057 10.32a1.056 1.056 0 00-1.497 0l-.967.967-.968-.968a1.056 1.056 0 00-1.497 0 1.056 1.056 0 000 1.497l1.716 1.716a1.056 1.056 0 001.497 0l1.716-1.716a1.056 1.056 0 000-1.497z" fill="#ffd54f"/>
    <path d="M15.115 11.377a1.056 1.056 0 00-1.497 0l-.967.968-.968-.968a1.056 1.056 0 00-1.496 0 1.056 1.056 0 000 1.497l1.716 1.716a1.056 1.056 0 001.497 0l1.715-1.716a1.056 1.056 0 000-1.497z" fill="#ffa000"/>
    <path d="M14.556 10.878a1.056 1.056 0 00-1.497 0c-1.135 1.192-.827 1.109-1.935 0a1.056 1.056 0 00-1.497 0 1.056 1.056 0 000 1.497c2.497 2.588 2.272 2.657 4.929 0a1.056 1.056 0 000-1.497z" fill="#37474f"/>
    <path d="M23.846 10.32a1.056 1.056 0 00-1.496 0l-.968.967-.967-.968a1.056 1.056 0 00-1.497 0 1.056 1.056 0 000 1.497l1.716 1.716a1.056 1.056 0 001.497 0l1.715-1.716a1.056 1.056 0 000-1.497z" fill="#ffd54f"/>
    <path d="M24.905 11.377a1.056 1.056 0 00-1.497 0l-.968.968-.967-.968a1.056 1.056 0 00-1.497 0 1.056 1.056 0 000 1.497l1.716 1.716a1.056 1.056 0 001.497 0l1.716-1.716a1.056 1.056 0 000-1.497z" fill="#ffa000"/>
    <path d="M24.376 10.848a1.056 1.056 0 00-1.497 0l-.968.968-.967-.968a1.056 1.056 0 00-1.497 0 1.056 1.056 0 000 1.497l1.716 1.716a1.056 1.056 0 001.497 0l1.716-1.716a1.056 1.056 0 000-1.497z" fill="#37474f"/>
    <path d="M17.198 22.225h5.292c.586 0 1.058.472 1.058 1.058 0 .587-.472 1.059-1.058 1.059h-5.292a1.056 1.056 0 01-1.058-1.059c0-.586.472-1.058 1.058-1.058z" fill="#d32f2f"/>
    <path d="M22.924 22.32a1.056 1.056 0 01-.964 1.493h-5.29c-.156 0-.302-.035-.435-.095.166.368.533.624.964.624h5.292a1.056 1.056 0 00.434-2.022z" fill="#b71c1c"/>
    <path style="line-height:normal;font-variant-ligatures:normal;font-variant-position:normal;font-variant-caps:normal;font-variant-numeric:normal;font-variant-alternates:normal;font-variant-east-asian:normal;font-feature-settings:normal;font-variation-settings:normal;text-indent:0;text-align:start;text-decoration-line:none;text-decoration-style:solid;text-decoration-color:#000;text-transform:none;text-orientation:mixed;white-space:normal;shape-padding:0;shape-margin:0;inline-size:0;isolation:auto;mix-blend-mode:normal;solid-color:#000;solid-opacity:1" d="M27.605 13.233c-2.192.095-4.227 1.783-4.248 4.157a3.719 3.719 0 00.961 2.525c.62.686 1.572 1.16 2.627 1.074a2.79 2.79 0 001.836-.892c.492-.526.813-1.41.53-2.256-.228-.68-.6-.947-1.162-1.156a1.453 1.453 0 00-1.124.013c-.442.196-.732.672-.81 1.06-.08.401.079.812.406 1.055-.273-.02-.521-.084-.73-.316a1.696 1.696 0 01-.417-1.088c.01-1.21 1.225-2.128 2.453-2.06 1.68.093 2.9 1.749 2.76 3.428-.177 2.13-2.112 3.448-4.386 3.448h-4.605c-.586 0-1.058.472-1.058 1.058 0 .587.472 1.059 1.058 1.059h4.458c3.215 0 6.362-2.029 6.643-5.39.234-2.804-1.793-5.553-4.752-5.717a4.472 4.472 0 00-.44-.002z" color="#000" font-weight="400" font-family="sans-serif" overflow="visible" fill="#039be5" fill-rule="evenodd"/>
    <path d="M17.198 22.225a1.056 1.056 0 00-.435 2.022 1.056 1.056 0 01.964-1.493h5.292c.155 0 .302.035.434.095a1.054 1.054 0 00-.963-.624h-5.292z" fill="#e53935"/>
    <path style="line-height:normal;font-variant-ligatures:normal;font-variant-position:normal;font-variant-caps:normal;font-variant-numeric:normal;font-variant-alternates:normal;font-variant-east-asian:normal;font-feature-settings:normal;font-variation-settings:normal;text-indent:0;text-align:start;text-decoration-line:none;text-decoration-style:solid;text-decoration-color:#000;text-transform:none;text-orientation:mixed;white-space:normal;shape-padding:0;shape-margin:0;inline-size:0;isolation:auto;mix-blend-mode:normal;solid-color:#000;solid-opacity:1" d="M27.605 13.233c-2.192.095-4.227 1.783-4.248 4.157a3.719 3.719 0 00.961 2.525c.119.131.253.252.394.365a3.712 3.712 0 01-.826-2.361c.021-2.374 2.056-4.062 4.248-4.157a4.826 4.826 0 013.326 1.163c-.84-.959-2.022-1.613-3.415-1.69a4.472 4.472 0 00-.44-.002zm2.389 3.24a3.33 3.33 0 01.694 2.304c-.178 2.13-2.113 3.448-4.387 3.448h-4.605a1.056 1.056 0 00-.435 2.022 1.056 1.056 0 01.964-1.493h4.605c2.274 0 4.209-1.318 4.387-3.448a3.309 3.309 0 00-1.223-2.833zm-2.347.106c-.19-.008-.4.021-.622.12-.442.195-.732.671-.81 1.06-.08.4.079.81.406 1.054a1.33 1.33 0 01-.406-.088c.06.11.126.214.205.301.209.232.457.295.73.316a1.058 1.058 0 01-.406-1.054c.078-.389.368-.865.81-1.06a1.449 1.449 0 011.124-.014c.165.061.312.13.445.21-.228-.384-.545-.58-.974-.74a1.634 1.634 0 00-.502-.105z" color="#000" font-weight="400" font-family="sans-serif" overflow="visible" fill="#4fc3f7" fill-rule="evenodd"/>
    <path style="line-height:normal;font-variant-ligatures:normal;font-variant-position:normal;font-variant-caps:normal;font-variant-numeric:normal;font-variant-alternates:normal;font-variant-east-asian:normal;font-feature-settings:normal;font-variation-settings:normal;text-indent:0;text-align:start;text-decoration-line:none;text-decoration-style:solid;text-decoration-color:#000;text-transform:none;text-orientation:mixed;white-space:normal;shape-padding:0;shape-margin:0;inline-size:0;isolation:auto;mix-blend-mode:normal;solid-color:#000;solid-opacity:1" d="M30.931 14.396a5.462 5.462 0 011.337 4.027c-.28 3.36-3.428 5.39-6.643 5.39h-4.458c-.156 0-.302-.035-.435-.095.166.368.533.624.964.624h4.458c3.215 0 6.362-2.029 6.643-5.39a5.447 5.447 0 00-1.866-4.556zm-3.763.422c-1.145.05-2.213.927-2.223 2.062-.003.38.164.808.416 1.088.1.11.21.18.325.228a1.673 1.673 0 01-.212-.787c.01-1.21 1.225-2.128 2.453-2.06.58.032 1.104.254 1.537.595-.497-.638-1.224-1.078-2.066-1.124a2.345 2.345 0 00-.23-.002zm1.426 2.077c.07.12.133.256.187.417.283.846-.037 1.73-.529 2.256a2.79 2.79 0 01-1.836.892c-.853.07-1.636-.23-2.233-.71.044.056.088.112.135.165.62.686 1.572 1.16 2.627 1.074a2.79 2.79 0 001.836-.892c.492-.526.813-1.41.53-2.256-.161-.48-.396-.752-.717-.946z" color="#000" font-weight="400" font-family="sans-serif" overflow="visible" fill="#0288d1" fill-rule="evenodd"/>
</svg>
