<svg xmlns="http://www.w3.org/2000/svg" viewBox="0 0 128 128">
    <path fill="#ffc107" d="M120 64a56 56 0 01-56 56A56 56 0 018 64 56 56 0 0164 8a56 56 0 0156 56"/>
    <path fill="#37474f" d="M64 68a16 19.692 0 00-16 19.692A16 19.692 0 0051.51 100 16 19.692 0 0164 92.615 16 19.692 0 0176.49 100 16 19.692 0 0080 87.692 16 19.692 0 0064 68zM44 41c-3.889 0-7.885 1.23-10.828 4.172a4 4 0 000 5.656 4 4 0 005.656 0C39.885 49.771 41.888 49 44 49c2.111 0 4.115.77 5.172 1.828a4 4 0 005.656 0 4 4 0 000-5.656C51.885 42.229 47.888 41 44 41zm40 0c-3.889 0-7.885 1.23-10.828 4.172a4 4 0 000 5.656 4 4 0 005.656 0C79.885 49.771 81.888 49 84 49c2.111 0 4.115.77 5.172 1.828a4 4 0 005.656 0 4 4 0 000-5.656C91.885 42.229 87.888 41 84 41z"/>
    <path fill="#29b6f6" d="M44 48c-2.216 0-4 1.784-4 4v52.14a24 10 0 00-4-.14 24 10 0 00-24 10 24 10 0 0024 10 24 10 0 006.215-.342A24 10 0 0062 128a24 10 0 0020.518-4.814A24 10 0 0092 124a24 10 0 0024-10 24 10 0 00-24-10 24 10 0 00-4 .14V52c0-2.216-1.784-4-4-4s-4 1.784-4 4v53.34a24 10 0 00-8.518 3.474A24 10 0 0062 108a24 10 0 00-6.215.342A24 10 0 0048 105.34V52c0-2.216-1.784-4-4-4z"/>
</svg>
