<?xml version="1.0" encoding="UTF-8" standalone="no"?>
<svg
   xmlns:dc="http://purl.org/dc/elements/1.1/"
   xmlns:cc="http://creativecommons.org/ns#"
   xmlns:rdf="http://www.w3.org/1999/02/22-rdf-syntax-ns#"
   xmlns:svg="http://www.w3.org/2000/svg"
   xmlns="http://www.w3.org/2000/svg"
   xmlns:sodipodi="http://sodipodi.sourceforge.net/DTD/sodipodi-0.dtd"
   xmlns:inkscape="http://www.inkscape.org/namespaces/inkscape"
   width="128"
   height="128"
   viewBox="0 0 33.866666 33.866668"
   version="1.1"
   id="svg8"
   inkscape:version="1.0 (4035a4f, 2020-05-01)"
   sodipodi:docname="crying.svg">
  <defs
     id="defs2" />
  <sodipodi:namedview
     id="base"
     pagecolor="#ffffff"
     bordercolor="#666666"
     borderopacity="1.0"
     inkscape:pageopacity="0.0"
     inkscape:pageshadow="2"
     inkscape:zoom="8.7931163"
     inkscape:cx="54.618857"
     inkscape:cy="98.108983"
     inkscape:document-units="px"
     inkscape:current-layer="layer1"
     inkscape:document-rotation="0"
     showgrid="true"
     units="px"
     inkscape:window-width="1777"
     inkscape:window-height="1102"
     inkscape:window-x="0"
     inkscape:window-y="25"
     inkscape:window-maximized="0"
     inkscape:snap-bbox="true"
     inkscape:snap-bbox-midpoints="true"
     inkscape:snap-grids="false"
     inkscape:snap-midpoints="true"
     inkscape:snap-smooth-nodes="true"
     inkscape:snap-intersection-paths="true"
     inkscape:object-paths="true">
    <inkscape:grid
       type="xygrid"
       id="grid833"
       empspacing="4" />
    <inkscape:grid
       type="xygrid"
       id="grid835"
       spacingx="2.1166667"
       spacingy="2.1166667"
       empspacing="4"
       empcolor="#ff3f61"
       empopacity="0.25098039" />
  </sodipodi:namedview>
  <metadata
     id="metadata5">
    <rdf:RDF>
      <cc:Work
         rdf:about="">
        <dc:format>image/svg+xml</dc:format>
        <dc:type
           rdf:resource="http://purl.org/dc/dcmitype/StillImage" />
        <dc:title />
      </cc:Work>
    </rdf:RDF>
  </metadata>
  <g
     inkscape:label="Layer 1"
     inkscape:groupmode="layer"
     id="layer1">
    <path
       d="M 31.750001,16.933334 A 14.816667,14.816667 0 0 1 16.933334,31.750001 14.816667,14.816667 0 0 1 2.1166677,16.933334 14.816667,14.816667 0 0 1 16.933334,2.1166677 14.816667,14.816667 0 0 1 31.750001,16.933334"
       style="fill:#ffc107;stroke:none;stroke-width:3.175;stroke-linecap:round;stroke-linejoin:round"
       id="path855" />
    <path
       id="circle885"
       style="fill:#ffd54f;stroke:none;stroke-width:12;stroke-linecap:round;stroke-linejoin:round"
       d="M 64 8 A 56.000001 56.000001 0 0 0 8 64 A 56.000001 56.000001 0 0 0 26.453125 105.54688 A 56.000001 56.000001 0 0 1 12 68 A 56.000001 56.000001 0 0 1 68 12 A 56.000001 56.000001 0 0 1 105.54688 26.453125 A 56.000001 56.000001 0 0 0 64 8 z "
       transform="scale(0.26458334)" />
    <path
       d="M 17.078024,31.894691 A 14.816667,14.816667 0 0 0 31.894691,17.078024 14.816667,14.816667 0 0 0 27.012302,6.0854162 14.816667,14.816667 0 0 1 30.836358,16.019691 14.816667,14.816667 0 0 1 16.019691,30.836358 14.816667,14.816667 0 0 1 6.0854162,27.012301 14.816667,14.816667 0 0 0 17.078024,31.894691 Z"
       style="fill:#ffa000;stroke:none;stroke-width:3.175;stroke-linecap:round;stroke-linejoin:round"
       id="path892" />
    <path
       sodipodi:nodetypes="sscsssssscs"
       d="M 13.905614,12.983465 C 13.491026,13.398054 12.823494,13.398055 12.408905,12.983465 L 11.441364,12.015922 10.473821,12.983465 C 10.059232,13.398053 9.3917007,13.398055 8.9771117,12.983465 8.5625237,12.568876 8.5625237,11.901343 8.9771117,11.486755 L 10.693009,9.7708577 C 10.744833,9.7190334 10.800529,9.6734274 10.859269,9.6345594 11.27045,9.3624861 11.826954,9.4080921 12.189718,9.7708577 L 13.905614,11.486755 C 14.320203,11.901343 14.320203,12.568875 13.905614,12.983465 Z"
       style="fill:#ffd54f;stroke:none;stroke-width:2.11667;stroke-linecap:round;stroke-linejoin:round;stroke-miterlimit:4;stroke-dasharray:none"
       id="path954" />
    <path
       sodipodi:nodetypes="sscsssssscs"
       d="M 14.963947,14.041797 C 14.549359,14.456385 13.881827,14.456386 13.467238,14.041797 L 12.499697,13.074254 11.532154,14.041797 C 11.117565,14.456384 10.450034,14.456386 10.035445,14.041797 9.6208566,13.627208 9.6208566,12.959675 10.035445,12.545087 L 11.751342,10.82919 C 11.803166,10.777366 11.858862,10.73176 11.917602,10.692892 12.328783,10.420819 12.885287,10.466425 13.248051,10.82919 L 14.963947,12.545087 C 15.378535,12.959675 15.378535,13.627207 14.963947,14.041797 Z"
       style="fill:#ffa000;stroke:none;stroke-width:2.11667;stroke-linecap:round;stroke-linejoin:round;stroke-miterlimit:4;stroke-dasharray:none"
       id="path956" />
    <path
       id="path947"
       style="fill:#37474f;stroke:none;stroke-width:2.11667;stroke-linecap:round;stroke-linejoin:round;stroke-miterlimit:4;stroke-dasharray:none"
       d="M 14.40462,13.48247 C 13.990032,13.897058 13.3225,13.897059 12.907911,13.48247 11.772432,12.29114 12.081195,12.374102 10.972827,13.48247 10.558238,13.897058 9.8907067,13.897059 9.4761177,13.48247 9.0615297,13.067881 9.0615297,12.400348 9.4761177,11.98576 11.973208,9.3981411 11.747998,9.3291361 14.40462,11.98576 14.819208,12.400348 14.819208,13.06788 14.40462,13.48247 Z"
       sodipodi:nodetypes="sccsccs" />
    <path
       id="path958"
       style="fill:#ffd54f;stroke:none;stroke-width:2.11667;stroke-linecap:round;stroke-linejoin:round;stroke-miterlimit:4;stroke-dasharray:none"
       d="M 23.695197,12.983467 C 23.280608,13.398055 22.613076,13.398056 22.198487,12.983467 L 21.230946,12.015923 20.263403,12.983467 C 19.848814,13.398055 19.181283,13.398056 18.766694,12.983467 18.352106,12.568877 18.352106,11.901344 18.766694,11.486756 L 20.482591,9.7708587 C 20.534415,9.7190344 20.590111,9.6734284 20.648851,9.6345604 21.060032,9.3624871 21.616536,9.4080931 21.9793,9.7708587 L 23.695197,11.486756 C 24.109786,11.901344 24.109786,12.568876 23.695197,12.983467 Z"
       sodipodi:nodetypes="sscsssssscs" />
    <path
       id="path960"
       style="fill:#ffa000;stroke:none;stroke-width:2.11667;stroke-linecap:round;stroke-linejoin:round;stroke-miterlimit:4;stroke-dasharray:none"
       d="M 24.753529,14.041798 C 24.338941,14.456386 23.671409,14.456387 23.25682,14.041798 L 22.289279,13.074255 21.321736,14.041798 C 20.907147,14.456385 20.239616,14.456387 19.825027,14.041798 19.410439,13.627209 19.410439,12.959676 19.825027,12.545088 L 21.540924,10.829192 C 21.592748,10.777368 21.648444,10.731762 21.707184,10.692894 22.118365,10.420821 22.674869,10.466427 23.037633,10.829192 L 24.753529,12.545088 C 25.168117,12.959676 25.168117,13.627208 24.753529,14.041798 Z"
       sodipodi:nodetypes="sscsssssscs" />
    <path
       sodipodi:nodetypes="sscsssssscs"
       d="M 24.224363,13.512632 C 23.809775,13.927221 23.142243,13.927222 22.727654,13.512632 L 21.760113,12.545089 20.79257,13.512632 C 20.377981,13.92722 19.71045,13.927222 19.295861,13.512632 18.881273,13.098043 18.881273,12.43051 19.295861,12.015922 L 21.011758,10.300025 C 21.063582,10.248201 21.119278,10.202595 21.178018,10.163727 21.589199,9.8916547 22.145703,9.9372597 22.508467,10.300025 L 24.224363,12.015922 C 24.638951,12.43051 24.638951,13.098042 24.224363,13.512632 Z"
       style="fill:#37474f;stroke:none;stroke-width:2.11667;stroke-linecap:round;stroke-linejoin:round;stroke-miterlimit:4;stroke-dasharray:none"
       id="path962" />
    <path
       d="M 16.404167,16.109612 A 5.2639914,6.1152388 0 0 0 11.140406,22.225001 5.2639914,6.1152388 0 0 0 11.537281,24.555092 5.9081526,4.7577273 0 0 1 16.404167,22.494235 5.9081526,4.7577273 0 0 1 21.271054,24.555092 5.2639914,6.1152388 0 0 0 21.667929,22.225001 5.2639914,6.1152388 0 0 0 16.404167,16.109612 Z"
       style="fill:#ffd54f;stroke:none;stroke-width:2.67459;stroke-linecap:round;stroke-linejoin:round;stroke-miterlimit:4;stroke-dasharray:none"
       id="path989" />
    <path
       d="M 17.4625,17.167944 A 5.2639914,6.1152388 0 0 0 12.198738,23.283334 5.2639914,6.1152388 0 0 0 12.595613,25.613424 5.9081526,4.7577273 0 0 1 17.4625,23.552568 5.9081526,4.7577273 0 0 1 22.329386,25.613424 5.2639914,6.1152388 0 0 0 22.726261,23.283334 5.2639914,6.1152388 0 0 0 17.4625,17.167944 Z"
       style="fill:#ffb300;stroke:none;stroke-width:2.67459;stroke-linecap:round;stroke-linejoin:round;stroke-miterlimit:4;stroke-dasharray:none"
       id="path991" />
    <path
       id="path982"
       style="fill:#37474f;stroke:none;stroke-width:10.1087;stroke-linecap:round;stroke-linejoin:round;stroke-miterlimit:4;stroke-dasharray:none"
       d="M 64 62.886719 A 19.8954 23.112713 0 0 0 44.105469 86 A 19.8954 23.112713 0 0 0 45.605469 94.806641 A 22.330025 17.981961 0 0 1 64 87.017578 A 22.330025 17.981961 0 0 1 82.394531 94.806641 A 19.8954 23.112713 0 0 0 83.894531 86 A 19.8954 23.112713 0 0 0 64 62.886719 z "
       transform="scale(0.26458334)" />
    <path
       id="path993"
       style="fill:#03a9f4;stroke:none;stroke-width:7.11651;stroke-linecap:round;stroke-linejoin:round;stroke-miterlimit:4;stroke-dasharray:none"
       d="M 44 46 C 41.784003 46 40 47.783999 40 50 L 40 104.04102 A 22.1569 10.000001 0 0 0 38 104 A 22.1569 10.000001 0 0 0 15.84375 114 A 22.1569 10.000001 0 0 0 38 124 A 22.1569 10.000001 0 0 0 43.523438 123.68555 A 22.1569 10.000001 0 0 0 60 127 A 22.1569 10.000001 0 0 0 78.455078 122.53516 A 22.1569 10.000001 0 0 0 90 124 A 22.1569 10.000001 0 0 0 112.15625 114 A 22.1569 10.000001 0 0 0 90 104 A 22.1569 10.000001 0 0 0 88 104.04102 L 88 50 C 88 47.783999 86.216001 46 84 46 L 82 46 C 79.783999 46 78 47.783999 78 50 L 78 105.5918 A 22.1569 10.000001 0 0 0 71.544922 108.46484 A 22.1569 10.000001 0 0 0 60 107 A 22.1569 10.000001 0 0 0 54.476562 107.31445 A 22.1569 10.000001 0 0 0 50 105.59375 L 50 50 C 50 47.783999 48.216001 46 46 46 L 44 46 z "
       transform="scale(0.26458334)" />
    <path
       id="path1025"
       style="fill:#0288d1;stroke:none;stroke-width:7.11651;stroke-linecap:round;stroke-linejoin:round;stroke-miterlimit:4;stroke-dasharray:none"
       d="M 47.642578,46.357422 C 47.868165,46.858996 48,47.412505 48,48 V 103.59375 L 50,105.59375 V 50 C 50,48.371494 49.032918,46.982738 47.642578,46.357422 Z M 85.642578,46.357422 C 85.868165,46.858996 86,47.412505 86,48 V 102.04102 L 88,104.04102 V 50 C 88,48.371494 87.032918,46.982738 85.642578,46.357422 Z M 109.07227,108.91016 C 109.79052,109.90806 110.15632,110.95077 110.15625,112 110.15625,117.52273 100.23666,121.99984 88,122 83.926508,121.99998 79.931869,121.49313 76.455078,120.53516 72.347938,123.32424 65.420092,125.0003 58,125 51.714807,124.99991 45.725436,123.79508 41.523438,121.68555 39.718908,121.89476 37.863116,122.00041 36,122 28.166363,122.00002 20.91493,120.13314 16.927734,117.08984 19.893695,121.21017 28.400927,123.99991 38,124 39.863116,124.00041 41.718908,123.89476 43.523438,123.68555 47.725436,125.79508 53.714807,126.99991 60,127 67.420092,127.0003 74.347938,125.32424 78.455078,122.53516 81.931869,123.49313 85.926508,123.99998 90,124 102.23666,123.99984 112.15625,119.52273 112.15625,114 112.15649,112.20937 111.09142,110.45156 109.07227,108.91016 Z"
       transform="scale(0.26458334)"
       sodipodi:nodetypes="csccsccsccscccccccccccccccc" />
    <path
       id="path1020"
       style="fill:#4fc3f7;stroke:none;stroke-width:7.11651;stroke-linecap:round;stroke-linejoin:round;stroke-miterlimit:4;stroke-dasharray:none"
       d="M 44,46 C 41.784003,46 40,47.783999 40,50 V 104.04102 C 39.335043,104.01375 38.667696,104.00007 38,104 25.763337,104.00016 15.843751,108.47727 15.84375,114 15.843511,115.79063 16.908587,117.54844 18.927734,119.08984 18.209484,118.09194 17.843681,117.04923 17.84375,116 17.843751,110.47727 27.763337,106.00016 40,106 40.667696,106.00007 41.335043,106.01375 42,106.04102 V 52 C 42,49.783999 43.784003,48 46,48 H 48 C 48.587495,48 49.141004,48.131835 49.642578,48.357422 49.017262,46.967082 47.628506,46 46,46 Z M 82,46 C 79.783999,46 78,47.783999 78,50 V 105.5918 C 75.432553,106.33844 73.234863,107.3166 71.544922,108.46484 68.068131,107.50687 64.073492,107.00002 60,107 58.136884,106.99959 56.281092,107.10524 54.476562,107.31445 53.713037,106.93137 52.885051,106.57549 52,106.25 51.38418,106.02843 50.749685,105.80789 50,105.59375 L 52,107.59375 C 53.65494,108.07501 55.16038,108.65367 56.476562,109.31445 58.281092,109.10524 60.136884,108.99959 62,109 66.073492,109.00002 70.068131,109.50687 73.544922,110.46484 75.234863,109.3166 77.432553,108.33844 80,107.5918 V 52 C 80,49.783999 81.783999,48 84,48 H 86 C 86.587495,48 87.141004,48.131835 87.642578,48.357422 87.017262,46.967082 85.628506,46 84,46 Z M 90,104 C 89.343582,104.00095 88.67871,104.0124 88,104.04102 L 90,106.04102 C 90.664957,106.01375 91.332304,106.00007 92,106 99.833639,105.99998 107.08507,107.86686 111.07227,110.91016 108.10631,106.78983 99.599075,104.00008 90,104 Z"
       transform="scale(0.26458334)"
       sodipodi:nodetypes="sscccccccssscsssscccccccccccssscsscccccc" />
  </g>
</svg>
