<svg xmlns="http://www.w3.org/2000/svg" width="128" height="128" viewBox="0 0 33.867 33.867">
    <path d="M31.75 16.933A14.817 14.817 0 0116.933 31.75 14.817 14.817 0 012.117 16.933 14.817 14.817 0 0116.933 2.117 14.817 14.817 0 0131.75 16.933" fill="#ffc107"/>
    <path d="M16.933 2.117A14.817 14.817 0 002.117 16.933a14.817 14.817 0 004.882 10.993 14.817 14.817 0 01-3.824-9.934A14.817 14.817 0 0117.992 3.175a14.817 14.817 0 019.934 3.824 14.817 14.817 0 00-10.993-4.882z" fill="#ffd54f"/>
    <path d="M17.078 31.895a14.817 14.817 0 0014.817-14.817 14.817 14.817 0 00-4.883-10.993 14.817 14.817 0 013.824 9.935A14.817 14.817 0 0116.02 30.836a14.817 14.817 0 01-9.935-3.824 14.817 14.817 0 0010.993 4.883z" fill="#ffa000"/>
    <path d="M13.906 12.983a1.056 1.056 0 01-1.497 0l-.968-.967-.967.967a1.056 1.056 0 01-1.497 0 1.056 1.056 0 010-1.496l1.716-1.716a1.056 1.056 0 011.497 0l1.716 1.716a1.056 1.056 0 010 1.496z" fill="#ffd54f"/>
    <path d="M14.964 14.042a1.056 1.056 0 01-1.497 0l-.967-.968-.968.968a1.056 1.056 0 01-1.497 0 1.056 1.056 0 010-1.497l1.716-1.716a1.056 1.056 0 011.497 0l1.716 1.716a1.056 1.056 0 010 1.497z" fill="#ffa000"/>
    <path d="M14.405 13.482a1.056 1.056 0 01-1.497 0c-1.136-1.19-.827-1.108-1.935 0a1.056 1.056 0 01-1.497 0 1.056 1.056 0 010-1.496c2.497-2.588 2.272-2.657 4.929 0a1.056 1.056 0 010 1.496z" fill="#37474f"/>
    <path d="M23.695 12.983a1.056 1.056 0 01-1.497 0l-.967-.967-.968.967a1.056 1.056 0 01-1.496 0 1.056 1.056 0 010-1.496l1.716-1.716a1.056 1.056 0 011.497 0l1.715 1.716a1.056 1.056 0 010 1.496z" fill="#ffd54f"/>
    <path d="M24.754 14.042a1.056 1.056 0 01-1.497 0l-.968-.968-.967.968a1.056 1.056 0 01-1.497 0 1.056 1.056 0 010-1.497l1.716-1.716a1.056 1.056 0 011.497 0l1.716 1.716a1.056 1.056 0 010 1.497z" fill="#ffa000"/>
    <path d="M24.224 13.513a1.056 1.056 0 01-1.496 0l-.968-.968-.967.968a1.056 1.056 0 01-1.497 0 1.056 1.056 0 010-1.497l1.716-1.716a1.056 1.056 0 011.497 0l1.715 1.716a1.056 1.056 0 010 1.497z" fill="#37474f"/>
    <path d="M16.404 16.11a5.264 6.115 0 00-5.264 6.115 5.264 6.115 0 00.397 2.33 5.908 4.758 0 014.867-2.06 5.908 4.758 0 014.867 2.06 5.264 6.115 0 00.397-2.33 5.264 6.115 0 00-5.264-6.115z" fill="#ffd54f"/>
    <path d="M17.462 17.168a5.264 6.115 0 00-5.263 6.115 5.264 6.115 0 00.397 2.33 5.908 4.758 0 014.866-2.06 5.908 4.758 0 014.867 2.06 5.264 6.115 0 00.397-2.33 5.264 6.115 0 00-5.264-6.115z" fill="#ffb300"/>
    <path d="M16.933 16.639a5.264 6.115 0 00-5.263 6.115 5.264 6.115 0 00.396 2.33 5.908 4.758 0 014.867-2.06 5.908 4.758 0 014.867 2.06 5.264 6.115 0 00.397-2.33 5.264 6.115 0 00-5.264-6.115z" fill="#37474f"/>
    <path d="M11.642 12.17c-.587 0-1.059.473-1.059 1.06v14.298a5.862 2.646 0 00-.529-.011 5.862 2.646 0 00-5.862 2.646 5.862 2.646 0 005.862 2.645 5.862 2.646 0 001.462-.083 5.862 2.646 0 004.359.877 5.862 2.646 0 004.883-1.181 5.862 2.646 0 003.055.387 5.862 2.646 0 005.862-2.645 5.862 2.646 0 00-5.862-2.646 5.862 2.646 0 00-.53.01V13.23c0-.586-.472-1.058-1.058-1.058h-.53c-.585 0-1.057.472-1.057 1.058v14.709a5.862 2.646 0 00-1.708.76 5.862 2.646 0 00-3.055-.388 5.862 2.646 0 00-1.461.084 5.862 2.646 0 00-1.185-.456V13.23c0-.586-.472-1.058-1.058-1.058h-.53z" fill="#03a9f4"/>
    <path d="M12.605 12.265c.06.133.095.28.095.435v14.71l.53.528V13.23c0-.43-.257-.798-.625-.964zm10.055 0c.06.133.094.28.094.435v14.298l.53.53V13.229c0-.43-.257-.798-.624-.964zm6.199 16.55c.19.265.287.54.287.818 0 1.462-2.625 2.646-5.863 2.646-1.077 0-2.134-.134-3.054-.387-1.087.738-2.92 1.181-4.883 1.18-1.663 0-3.248-.318-4.36-.876-.477.055-.968.083-1.461.083-2.073 0-3.991-.494-5.046-1.299.785 1.09 3.035 1.828 5.575 1.828.493 0 .984-.028 1.462-.083 1.111.558 2.696.877 4.359.877 1.963 0 3.796-.443 4.883-1.181.92.253 1.977.387 3.055.387 3.237 0 5.862-1.184 5.862-2.645 0-.474-.282-.94-.816-1.347z" fill="#0288d1"/>
    <path d="M11.642 12.17c-.587 0-1.059.473-1.059 1.06v14.298a11.639 11.639 0 00-.529-.011c-3.237 0-5.862 1.184-5.862 2.646 0 .473.282.938.816 1.346a1.393 1.393 0 01-.287-.817c0-1.462 2.625-2.646 5.862-2.646.177 0 .354.003.53.01V13.759c0-.586.472-1.058 1.058-1.058h.529c.155 0 .302.035.435.095a1.054 1.054 0 00-.964-.624zm10.054 0c-.586 0-1.058.473-1.058 1.06v14.708c-.68.197-1.261.456-1.708.76a11.71 11.71 0 00-3.055-.388c-.493 0-.984.028-1.461.084a6.353 6.353 0 00-.656-.282 7.995 7.995 0 00-.529-.174l.53.53c.437.127.836.28 1.184.455.477-.056.968-.084 1.461-.083 1.078 0 2.135.134 3.055.387.447-.304 1.028-.562 1.708-.76V13.758c0-.586.472-1.058 1.058-1.058h.53c.155 0 .301.035.434.095a1.054 1.054 0 00-.964-.624zm2.117 15.347c-.174 0-.35.003-.53.01l.53.53c.175-.008.352-.011.529-.011 2.072 0 3.99.494 5.046 1.299-.785-1.09-3.036-1.828-5.575-1.828z" fill="#4fc3f7"/>
</svg>
