<svg
  xmlns="http://www.w3.org/2000/svg"
  width="256"
  height="256"
  viewBox="0 0 256 256"
>
  <ellipse ry="14" rx="56" cy="239" cx="130" fill="#03a9f4" />
  <ellipse ry="14" rx="56" cy="222" cx="192" fill="#03a9f4" />
  <ellipse cx="64" cy="222" rx="56" ry="14" fill="#03a9f4" />
  <circle r="108" cy="128" cx="128" fill="#ffc107" />
  <ellipse
    cx="128"
    cy="194"
    rx="33.895"
    ry="9.895"
    fill="#ffc107"
    stroke="#ffc107"
    stroke-width="12.209"
    stroke-linecap="round"
    stroke-linejoin="round"
  />
  <path
    d="M128 109a48 46.605 0 00-48 46.605A48 46.605 0 0094.518 189 39.273 41.7 0 01128 169.096 39.273 41.7 0 01161.482 189 48 46.605 0 00176 155.605 48 46.605 0 00128 109z"
    fill="#263238"
  />
  <path
    d="M104 74C44 86 16 180 16 216l52 4c-4-44-3.84-95.812 36-146zm47-2c60 12 89 108 89 144l-52 4c4-44 2.84-97.812-37-148z"
    fill="#03a9f4"
  />
  <path
    d="M68 80a20 16 0 0120-16 20 16 0 0120 16H88zm80 0a20 16 0 0120-16 20 16 0 0120 16h-20z"
    fill="#263238"
  />
</svg>
