<svg
  xmlns="http://www.w3.org/2000/svg"
  height="256"
  width="256"
  viewBox="0 0 256 256"
>
  <path
    d="M26 16h25.5c8.5 0 17 10 25.5 10s17-10 25.5-10 17-10 25.5-10 17 10 25.5 10 17 10 25.5 10 17-10 25.5-10H230c2.77 0 10 7.23 10 10v25.5c0 8.5 10 17 10 25.5s-10 17-10 25.5-10 17-10 25.5 10 17 10 25.5V179c0 8.5 10 17 10 25.5s-10 22.73-10 25.5c0 2.77-7.23 10-10 10h-25.5c-8.5 0-17 10-25.5 10s-17-10-25.5-10-17-10-25.5-10-17 10-25.5 10-17 10-25.5 10-17-10-25.5-10H26c-2.77 0-10-4.46-10-10v-25.5c0-8.5-10-17-10-25.5s10-17 10-25.5V128c0-8.5 10-17 10-25.5S16 85.5 16 77 6 60 6 51.5 16 26 16 26c0-5.54 7.23-10 10-10z"
    fill="#8d6e63"
  />
  <circle r="24" cy="148" cx="76" fill="#795548" />
  <circle r="12" cx="188" cy="88" fill="#795548" />
  <circle r="28" cy="186" cx="177" fill="#795548" />
  <circle r="16" cx="84" cy="56" fill="#795548" />
</svg>
