<?xml version="1.0" encoding="UTF-8" standalone="no"?>
<svg
   xmlns:dc="http://purl.org/dc/elements/1.1/"
   xmlns:cc="http://creativecommons.org/ns#"
   xmlns:rdf="http://www.w3.org/1999/02/22-rdf-syntax-ns#"
   xmlns:svg="http://www.w3.org/2000/svg"
   xmlns="http://www.w3.org/2000/svg"
   xmlns:sodipodi="http://sodipodi.sourceforge.net/DTD/sodipodi-0.dtd"
   xmlns:inkscape="http://www.inkscape.org/namespaces/inkscape"
   width="128"
   height="128"
   viewBox="0 0 33.866666 33.866668"
   version="1.1"
   id="svg8"
   inkscape:version="1.0 (4035a4f, 2020-05-01)"
   sodipodi:docname="earth.svg">
  <defs
     id="defs2" />
  <sodipodi:namedview
     id="base"
     pagecolor="#ffffff"
     bordercolor="#666666"
     borderopacity="1.0"
     inkscape:pageopacity="0.0"
     inkscape:pageshadow="2"
     inkscape:zoom="3.6527039"
     inkscape:cx="-35.949878"
     inkscape:cy="100.93384"
     inkscape:document-units="px"
     inkscape:current-layer="layer1"
     inkscape:document-rotation="0"
     showgrid="true"
     units="px"
     inkscape:window-width="1777"
     inkscape:window-height="1046"
     inkscape:window-x="0"
     inkscape:window-y="25"
     inkscape:window-maximized="0"
     inkscape:snap-bbox="true"
     inkscape:snap-bbox-midpoints="true"
     inkscape:snap-grids="true"
     inkscape:snap-midpoints="true"
     inkscape:snap-smooth-nodes="true"
     inkscape:snap-intersection-paths="true"
     inkscape:object-paths="true"
     inkscape:snap-nodes="true"
     inkscape:snap-others="true"
     inkscape:snap-global="true"
     inkscape:bbox-paths="true"
     inkscape:bbox-nodes="true">
    <inkscape:grid
       type="xygrid"
       id="grid833"
       empspacing="4" />
    <inkscape:grid
       type="xygrid"
       id="grid835"
       spacingx="2.1166667"
       spacingy="2.1166667"
       empspacing="4"
       empcolor="#ff3f61"
       empopacity="0.25098039" />
  </sodipodi:namedview>
  <metadata
     id="metadata5">
    <rdf:RDF>
      <cc:Work
         rdf:about="">
        <dc:format>image/svg+xml</dc:format>
        <dc:type
           rdf:resource="http://purl.org/dc/dcmitype/StillImage" />
        <dc:title />
      </cc:Work>
    </rdf:RDF>
  </metadata>
  <g
     inkscape:label="Layer 1"
     inkscape:groupmode="layer"
     id="layer1">
    <path
       id="rect1586"
       style="fill:#795548;stroke:none;stroke-width:1.97556;stroke-linecap:round;stroke-linejoin:round;stroke-miterlimit:4;stroke-dasharray:none"
       d="M 2.1166667,2.1166667 C 2.9897472,1.2435862 4.5980457,2.2879242 5.8208334,2.1166667 7.0925518,1.9385562 8.2408695,1.0583334 9.525,1.0583334 10.809131,1.0583333 11.994445,1.7638889 13.229167,2.1166667 14.463889,2.4694444 15.649203,3.175 16.933333,3.175 18.217464,3.1750001 19.402778,2.4694445 20.6375,2.1166667 21.872222,1.7638889 23.057536,1.0583333 24.341667,1.0583334 25.625797,1.0583334 26.774115,1.9385562 28.045833,2.1166667 29.268621,2.2879242 30.876919,1.2435862 31.75,2.1166667 32.62308,2.9897472 31.921257,4.5980457 31.75,5.8208334 31.57189,7.0925518 30.691667,8.2408695 30.691667,9.525 30.691667,10.809131 31.397222,11.994445 31.75,13.229167 32.102778,14.463889 32.808333,15.649203 32.808333,16.933333 32.808333,18.217464 31.75,19.353369 31.75,20.6375 31.75,21.921631 32.808333,23.057536 32.808333,24.341667 32.808333,25.625797 31.92811,26.774115 31.75,28.045833 31.578742,29.268621 32.623081,30.876919 31.75,31.75 30.876919,32.623081 29.268621,31.921258 28.045833,31.75 26.774115,31.57189 25.625797,30.691667 24.341667,30.691667 23.057536,30.691667 21.872222,31.397222 20.6375,31.75 19.402778,32.102778 18.217464,32.808333 16.933333,32.808333 15.649203,32.808333 14.463889,32.102778 13.229167,31.75 11.994445,31.397222 10.809131,30.691667 9.525,30.691667 8.2408695,30.691667 7.0925518,31.57189 5.8208334,31.75 4.5980457,31.921257 2.9897472,32.62308 2.1166667,31.75 1.2435862,30.876919 1.9454092,29.268621 2.1166667,28.045833 2.2947772,26.774115 3.175,25.625797 3.175,24.341667 3.1750001,23.057536 2.1166667,21.921631 2.1166667,20.6375 2.1166667,19.353369 3.1750001,18.217464 3.175,16.933333 3.175,15.649203 2.4694444,14.463889 2.1166667,13.229167 1.7638889,11.994445 1.0583333,10.809131 1.0583334,9.525 1.0583334,8.2408695 1.9385562,7.0925518 2.1166667,5.8208334 2.2879242,4.5980457 1.2435862,2.9897472 2.1166667,2.1166667 Z"
       sodipodi:nodetypes="aaaaaaaaaaaaaaaaaaaaaaaaaaaaaaaaa" />
    <path
       d="M 14.816668,10.583333 A 3.1750002,3.1750002 0 0 1 11.641667,13.758333 3.1750002,3.1750002 0 0 1 8.4666672,10.583333 3.1750002,3.1750002 0 0 1 11.641667,7.4083328 3.1750002,3.1750002 0 0 1 14.816668,10.583333"
       style="fill:#5d4037;stroke:none;stroke-width:2.11667;stroke-linecap:round;stroke-linejoin:round;stroke-miterlimit:4;stroke-dasharray:none"
       id="path1599" />
    <path
       d="M 25.929168,12.170833 A 2.6458333,2.6458333 0 0 1 23.283335,14.816666 2.6458333,2.6458333 0 0 1 20.637501,12.170833 2.6458333,2.6458333 0 0 1 23.283335,9.5249994 2.6458333,2.6458333 0 0 1 25.929168,12.170833"
       style="fill:#5d4037;stroke:none;stroke-width:2.64584;stroke-linecap:round;stroke-linejoin:round;stroke-miterlimit:4;stroke-dasharray:none"
       id="path1601" />
    <path
       d="M 27.252083,22.225 A 4.2333336,4.2333336 0 0 1 23.018749,26.458334 4.2333336,4.2333336 0 0 1 18.785416,22.225 4.2333336,4.2333336 0 0 1 23.018749,17.991667 4.2333336,4.2333336 0 0 1 27.252083,22.225"
       style="fill:#5d4037;stroke:none;stroke-width:2.82223;stroke-linecap:round;stroke-linejoin:round;stroke-miterlimit:4;stroke-dasharray:none"
       id="path1603" />
    <path
       d="M 15.345836,20.902082 A 2.1166668,2.1166668 0 0 1 13.229169,23.018749 2.1166668,2.1166668 0 0 1 11.112502,20.902082 2.1166668,2.1166668 0 0 1 13.229169,18.785416 2.1166668,2.1166668 0 0 1 15.345836,20.902082"
       style="fill:#5d4037;stroke:none;stroke-width:2.11667;stroke-linecap:round;stroke-linejoin:round;stroke-miterlimit:4;stroke-dasharray:none"
       id="path1605" />
    <path
       id="path6099"
       style="fill:#5d4037;stroke:none;stroke-width:7.46668;stroke-linecap:round;stroke-linejoin:round;stroke-miterlimit:4;stroke-dasharray:none"
       d="M 117.43945 6.7597656 C 118.14656 10.101225 116.49396 14.473072 116 18 C 115.32683 22.806495 112 27.146593 112 32 C 112 36.853412 114.66667 41.333334 116 46 C 117.33333 50.666666 120 55.146595 120 60 C 120 64.853408 116 69.146592 116 74 C 116 78.853408 120 83.146592 120 88 C 120 92.853405 116.67317 97.193507 116 102 C 115.35273 106.62156 119.29983 112.70017 116 116 C 112.70017 119.29983 106.62156 116.64727 102 116 C 97.193507 115.32683 92.853405 112 88 112 C 83.146592 112 78.666666 114.66667 74 116 C 69.333334 117.33333 64.853408 120 60 120 C 55.146595 120 50.666666 117.33333 46 116 C 41.333334 114.66667 36.853412 112 32 112 C 27.146593 112 22.806495 115.32683 18 116 C 14.415927 116.50197 9.9606561 118.19791 6.5996094 117.40039 C 6.8304674 118.37332 7.2592262 119.25923 8 120 C 11.299832 123.29983 17.37844 120.64727 22 120 C 26.806495 119.32683 31.146593 116 36 116 C 40.853408 116 45.333334 118.66667 50 120 C 54.666666 121.33333 59.146595 124 64 124 C 68.853408 124 73.333334 121.33333 78 120 C 82.666666 118.66667 87.146592 116 92 116 C 96.853405 116 101.19351 119.32683 106 120 C 110.62156 120.64727 116.70017 123.29983 120 120 C 123.29983 116.70017 119.35273 110.62156 120 106 C 120.67317 101.19351 124 96.853405 124 92 C 124 87.146592 120 82.853408 120 78 C 120 73.146592 124 68.853408 124 64 C 124 59.146595 121.33333 54.666666 120 50 C 118.66667 45.333334 116 40.853408 116 36 C 116 31.146593 119.32683 26.806495 120 22 C 120.64727 17.37844 123.29983 11.299832 120 8 C 119.26923 7.2692273 118.39678 6.9083178 117.43945 6.7597656 z "
       transform="scale(0.26458334)" />
    <path
       id="path6094"
       style="fill:#a1887f;stroke:none;stroke-width:7.46668;stroke-linecap:round;stroke-linejoin:round;stroke-miterlimit:4;stroke-dasharray:none"
       d="M 36 4 C 31.146593 4 26.806495 7.3268265 22 8 C 17.37844 8.6472724 11.299832 4.7001682 8 8 C 4.7001682 11.299832 8.6472724 17.37844 8 22 C 7.3268265 26.806495 4 31.146593 4 36 C 3.9999996 40.853408 6.6666666 45.333334 8 50 C 9.333333 54.666666 12 59.146595 12 64 C 12 68.853408 8 73.146592 8 78 C 8 82.853408 12 87.146592 12 92 C 12 96.853405 8.6731735 101.19351 8 106 C 7.3527276 110.62156 4.7001682 116.70017 8 120 C 8.7407738 120.74077 9.6266829 121.16953 10.599609 121.40039 C 9.8020931 118.03934 11.498033 113.58407 12 110 C 12.673174 105.19351 16 100.8534 16 96 C 16 91.146592 12 86.853408 12 82 C 12 77.146592 16 72.853408 16 68 C 16 63.146595 13.333333 58.666666 12 54 C 10.666667 49.333334 7.9999996 44.853405 8 40 C 8 35.146594 11.326826 30.806495 12 26 C 12.647272 21.37844 8.7001682 15.299832 12 12 C 15.299832 8.7001682 21.37844 12.647272 26 12 C 30.806495 11.326826 35.146594 8 40 8 C 44.853405 7.9999996 49.333334 10.666667 54 12 C 58.666666 13.333333 63.146595 16 68 16 C 72.853408 16 77.333334 13.333333 82 12 C 86.666666 10.666667 91.146592 7.9999996 96 8 C 100.8534 8 105.19351 11.326826 110 12 C 113.59808 12.503929 118.07393 10.237525 121.43945 10.759766 C 121.21999 9.7226961 120.78158 8.7815763 120 8 C 116.70017 4.7001682 110.62156 8.6472724 106 8 C 101.19351 7.3268265 96.853405 4 92 4 C 87.146592 3.9999996 82.666666 6.6666666 78 8 C 73.333334 9.3333334 68.853408 12 64 12 C 59.146595 12 54.666666 9.333333 50 8 C 45.333334 6.6666666 40.853408 3.9999996 36 4 z "
       transform="scale(0.26458334)" />
  </g>
</svg>
