<svg xmlns="http://www.w3.org/2000/svg" viewBox="0 0 33.867 33.867">
    <path d="M2.117 2.117c.873-.873 2.481.17 3.704 0 1.272-.178 2.42-1.059 3.704-1.059 1.284 0 2.47.706 3.704 1.059 1.235.352 2.42 1.058 3.704 1.058 1.284 0 2.47-.706 3.704-1.058 1.235-.353 2.42-1.059 3.705-1.059 1.284 0 2.432.88 3.704 1.059 1.223.17 2.83-.873 3.704 0 .873.873.171 2.481 0 3.704-.178 1.272-1.058 2.42-1.058 3.704 0 1.284.705 2.47 1.058 3.704.353 1.235 1.058 2.42 1.058 3.704 0 1.284-1.058 2.42-1.058 3.704 0 1.285 1.058 2.42 1.058 3.705 0 1.284-.88 2.432-1.058 3.704-.171 1.223.873 2.83 0 3.704-.873.873-2.481.171-3.704 0-1.272-.178-2.42-1.058-3.704-1.058-1.284 0-2.47.705-3.704 1.058-1.235.353-2.42 1.058-3.705 1.058-1.284 0-2.47-.705-3.704-1.058-1.235-.353-2.42-1.058-3.704-1.058-1.284 0-2.432.88-3.704 1.058-1.223.171-2.831.873-3.704 0-.873-.873-.172-2.481 0-3.704.178-1.272 1.058-2.42 1.058-3.704 0-1.284-1.058-2.42-1.058-3.704 0-1.285 1.058-2.42 1.058-3.705 0-1.284-.706-2.47-1.058-3.704-.353-1.235-1.059-2.42-1.059-3.704 0-1.284.88-2.432 1.059-3.704.17-1.223-.873-2.831 0-3.704z" fill="#795548"/>
    <path d="M14.817 10.583a3.175 3.175 0 01-3.175 3.175 3.175 3.175 0 01-3.175-3.175 3.175 3.175 0 013.175-3.175 3.175 3.175 0 013.175 3.175M25.93 12.17a2.646 2.646 0 01-2.647 2.647 2.646 2.646 0 01-2.645-2.646 2.646 2.646 0 012.645-2.646 2.646 2.646 0 012.646 2.646m1.323 10.054a4.233 4.233 0 01-4.233 4.233 4.233 4.233 0 01-4.234-4.233 4.233 4.233 0 014.234-4.233 4.233 4.233 0 014.233 4.233m-11.906-1.323a2.117 2.117 0 01-2.117 2.117 2.117 2.117 0 01-2.116-2.117 2.117 2.117 0 012.116-2.117 2.117 2.117 0 012.117 2.117" fill="#5d4037"/>
    <path d="M31.073 1.789c.187.884-.25 2.04-.381 2.974-.178 1.271-1.059 2.42-1.059 3.704 0 1.284.706 2.47 1.059 3.704.352 1.235 1.058 2.42 1.058 3.704 0 1.284-1.058 2.42-1.058 3.704 0 1.284 1.058 2.42 1.058 3.704 0 1.284-.88 2.433-1.058 3.705-.172 1.222.873 2.83 0 3.704-.873.873-2.482.17-3.704 0-1.272-.178-2.42-1.059-3.705-1.059-1.284 0-2.47.706-3.704 1.059-1.235.352-2.42 1.058-3.704 1.058-1.284 0-2.47-.706-3.704-1.058-1.235-.353-2.42-1.059-3.704-1.059-1.284 0-2.433.88-3.704 1.059-.949.132-2.128.581-3.017.37.061.258.175.492.37.688.874.873 2.482.171 3.705 0 1.272-.178 2.42-1.058 3.704-1.058 1.284 0 2.47.705 3.704 1.058 1.235.353 2.42 1.058 3.704 1.058 1.284 0 2.47-.705 3.705-1.058 1.234-.353 2.42-1.058 3.704-1.058 1.284 0 2.432.88 3.704 1.058 1.223.171 2.83.873 3.704 0 .873-.873-.171-2.481 0-3.704.178-1.272 1.058-2.42 1.058-3.704 0-1.284-1.058-2.42-1.058-3.704 0-1.285 1.058-2.42 1.058-3.705 0-1.284-.705-2.47-1.058-3.704-.353-1.235-1.058-2.42-1.058-3.704 0-1.284.88-2.432 1.058-3.704.171-1.223.873-2.831 0-3.704a1.177 1.177 0 00-.677-.328z" fill="#5d4037"/>
    <path d="M9.525 1.058c-1.284 0-2.432.88-3.704 1.059-1.223.17-2.831-.873-3.704 0-.873.873.17 2.481 0 3.704-.178 1.272-1.059 2.42-1.059 3.704 0 1.284.706 2.47 1.059 3.704.352 1.235 1.058 2.42 1.058 3.704 0 1.284-1.058 2.42-1.058 3.705 0 1.284 1.058 2.42 1.058 3.704 0 1.284-.88 2.432-1.058 3.704-.172 1.223-.873 2.83 0 3.704.196.196.43.31.687.37-.21-.889.238-2.068.371-3.016.178-1.272 1.058-2.42 1.058-3.704 0-1.284-1.058-2.42-1.058-3.704 0-1.284 1.058-2.42 1.058-3.704 0-1.284-.705-2.47-1.058-3.704-.353-1.235-1.058-2.42-1.058-3.705 0-1.284.88-2.432 1.058-3.704.171-1.223-.873-2.83 0-3.704.873-.873 2.481.171 3.704 0 1.272-.178 2.42-1.058 3.704-1.058 1.284 0 2.47.705 3.705 1.058 1.234.353 2.42 1.058 3.704 1.058 1.284 0 2.47-.705 3.704-1.058 1.235-.353 2.42-1.058 3.704-1.058 1.284 0 2.432.88 3.704 1.058.952.133 2.136-.466 3.027-.328a1.416 1.416 0 00-.381-.73c-.873-.873-2.481.17-3.704 0-1.272-.178-2.42-1.059-3.704-1.059-1.284 0-2.47.706-3.704 1.059-1.235.352-2.42 1.058-3.705 1.058-1.284 0-2.47-.706-3.704-1.058-1.235-.353-2.42-1.059-3.704-1.059z" fill="#a1887f"/>
</svg>
