<?xml version="1.0" encoding="UTF-8" standalone="no"?>
<svg
   xmlns:dc="http://purl.org/dc/elements/1.1/"
   xmlns:cc="http://creativecommons.org/ns#"
   xmlns:rdf="http://www.w3.org/1999/02/22-rdf-syntax-ns#"
   xmlns:svg="http://www.w3.org/2000/svg"
   xmlns="http://www.w3.org/2000/svg"
   xmlns:sodipodi="http://sodipodi.sourceforge.net/DTD/sodipodi-0.dtd"
   xmlns:inkscape="http://www.inkscape.org/namespaces/inkscape"
   sodipodi:docname="earth-hover.svg"
   inkscape:version="1.0 (4035a4f, 2020-05-01)"
   id="svg8"
   version="1.1"
   viewBox="0 0 256 256"
   height="256"
   width="256">
  <defs
     id="defs2" />
  <sodipodi:namedview
     inkscape:window-maximized="0"
     inkscape:window-y="25"
     inkscape:window-x="0"
     inkscape:window-height="1359"
     inkscape:window-width="2560"
     inkscape:snap-bbox-edge-midpoints="true"
     inkscape:snap-midpoints="true"
     inkscape:snap-smooth-nodes="true"
     inkscape:snap-intersection-paths="true"
     inkscape:object-paths="true"
     inkscape:snap-bbox-midpoints="false"
     inkscape:snap-bbox="true"
     units="px"
     showgrid="true"
     inkscape:document-rotation="0"
     inkscape:current-layer="layer1"
     inkscape:document-units="px"
     inkscape:cy="116.45263"
     inkscape:cx="214.52143"
     inkscape:zoom="3.0900769"
     inkscape:pageshadow="2"
     inkscape:pageopacity="0.0"
     borderopacity="1.0"
     bordercolor="#666666"
     pagecolor="#ffffff"
     id="base">
    <inkscape:grid
       spacingy="4"
       spacingx="4"
       empspacing="16"
       id="grid835"
       type="xygrid" />
  </sodipodi:namedview>
  <metadata
     id="metadata5">
    <rdf:RDF>
      <cc:Work
         rdf:about="">
        <dc:format>image/svg+xml</dc:format>
        <dc:type
           rdf:resource="http://purl.org/dc/dcmitype/StillImage" />
        <dc:title></dc:title>
      </cc:Work>
    </rdf:RDF>
  </metadata>
  <g
     id="layer1"
     inkscape:groupmode="layer"
     inkscape:label="Layer 1">
    <path
       sodipodi:nodetypes="zzzzzzzzzzzzzzzzzzzzzzzzzzzszzzzzzzsz"
       d="M 26,16 H 51.5 C 60,16 68.5,26 77,26 85.5,26 94,16 102.5,16 111,16 119.5,6 128,6 136.5,6 145,16 153.5,16 162,16 170.5,26 179,26 187.5,26 196,16 204.5,16 H 230 C 232.77,16 240,23.23 240,26 240,28.77 240,43 240,51.5 240,60 250,68.5 250,77 250,85.5 240,94 240,102.5 240,111 230,119.5 230,128 230,136.5 240,145 240,153.5 240,162 240,170.5 240,179 240,187.5 250,196 250,204.5 250,213 240,227.23 240,230 240,232.77 232.77,240 230,240 230,240 213,240 204.5,240 196,240 187.5,250 179,250 170.5,250 162,240 153.5,240 145,240 136.5,230 128,230 119.5,230 111,240 102.5,240 94,240 85.5,250 77,250 68.5,250 60,240 51.5,240 43,240 26,240 26,240 23.23,240 16,235.54 16,230 16,230 16,213 16,204.5 16,196 6,187.5 6,179 6,170.5 16,162 16,153.5 16,145 16,136.5 16,128 16,119.5 26,111 26,102.5 26,94 16,85.5 16,77 16,68.5 6,60 6,51.5 6,43 16,26 16,26 16,20.46 23.23,16 26,16 Z"
       style="fill:#8d6e63;stroke:none;stroke-width:0.944882;stroke-linecap:round;stroke-linejoin:round"
       id="rect910" />
    <circle
       r="24"
       cy="148"
       cx="76"
       id="path912"
       style="fill:#795548;stroke:none;stroke-width:1.03078;stroke-linecap:round;stroke-linejoin:round" />
    <circle
       r="12"
       style="fill:#795548;stroke:none;stroke-width:0.51539;stroke-linecap:round;stroke-linejoin:round"
       id="circle914"
       cx="188"
       cy="88" />
    <circle
       r="28"
       cy="186"
       cx="177"
       id="circle916"
       style="fill:#795548;stroke:none;stroke-width:1.20257;stroke-linecap:round;stroke-linejoin:round" />
    <circle
       r="16"
       style="fill:#795548;stroke:none;stroke-width:0.687183;stroke-linecap:round;stroke-linejoin:round"
       id="circle918"
       cx="84"
       cy="56" />
  </g>
</svg>
