<?xml version="1.0" encoding="UTF-8" standalone="no"?>
<svg
   xmlns:dc="http://purl.org/dc/elements/1.1/"
   xmlns:cc="http://creativecommons.org/ns#"
   xmlns:rdf="http://www.w3.org/1999/02/22-rdf-syntax-ns#"
   xmlns:svg="http://www.w3.org/2000/svg"
   xmlns="http://www.w3.org/2000/svg"
   xmlns:sodipodi="http://sodipodi.sourceforge.net/DTD/sodipodi-0.dtd"
   xmlns:inkscape="http://www.inkscape.org/namespaces/inkscape"
   sodipodi:docname="flag.svg"
   inkscape:version="1.0 (4035a4f, 2020-05-01)"
   id="svg8"
   version="1.1"
   viewBox="0 0 33.866666 33.866668"
   height="128"
   width="128">
  <defs
     id="defs2" />
  <sodipodi:namedview
     inkscape:bbox-nodes="true"
     inkscape:bbox-paths="true"
     inkscape:snap-global="true"
     inkscape:snap-others="true"
     inkscape:snap-nodes="true"
     inkscape:object-paths="true"
     inkscape:snap-intersection-paths="true"
     inkscape:snap-smooth-nodes="true"
     inkscape:snap-midpoints="true"
     inkscape:snap-grids="false"
     inkscape:snap-bbox-midpoints="true"
     inkscape:snap-bbox="true"
     inkscape:window-maximized="0"
     inkscape:window-y="25"
     inkscape:window-x="0"
     inkscape:window-height="1130"
     inkscape:window-width="1777"
     units="px"
     showgrid="true"
     inkscape:document-rotation="0"
     inkscape:current-layer="layer1"
     inkscape:document-units="px"
     inkscape:cy="116.80698"
     inkscape:cx="158.76817"
     inkscape:zoom="3.8510359"
     inkscape:pageshadow="2"
     inkscape:pageopacity="0.0"
     borderopacity="1.0"
     bordercolor="#666666"
     pagecolor="#ffffff"
     id="base">
    <inkscape:grid
       empspacing="4"
       id="grid833"
       type="xygrid" />
    <inkscape:grid
       empopacity="0.25098039"
       empcolor="#ff3f61"
       empspacing="4"
       spacingy="2.1166667"
       spacingx="2.1166667"
       id="grid835"
       type="xygrid" />
  </sodipodi:namedview>
  <metadata
     id="metadata5">
    <rdf:RDF>
      <cc:Work
         rdf:about="">
        <dc:format>image/svg+xml</dc:format>
        <dc:type
           rdf:resource="http://purl.org/dc/dcmitype/StillImage" />
        <dc:title></dc:title>
      </cc:Work>
    </rdf:RDF>
  </metadata>
  <g
     id="layer1"
     inkscape:groupmode="layer"
     inkscape:label="Layer 1">
    <path
       sodipodi:nodetypes="ccccc"
       d="M 2.1166668,4.2333336 C 9.5250001,0 17.991667,8.4666668 25.400002,4.2333336 25.400002,9.8777784 25.400002,15.522223 25.400002,21.166668 17.991667,25.4 9.5250001,16.933334 2.1166668,21.166668 2.1166668,15.522223 2.1166668,9.8777784 2.1166668,4.2333336 Z"
       style="fill:#d32f2f;stroke:none;stroke-width:2.11667;stroke-linecap:round;stroke-linejoin:round;stroke-miterlimit:4;stroke-dasharray:none"
       id="rect1660" />
    <path
       transform="scale(0.26458334)"
       d="M 102 8 C 98.676 8 96 10.676 96 14 L 96 104.45703 A 17.999999 8.0000004 0 0 0 84 112 A 17.999999 8.0000004 0 0 0 102 120 A 17.999999 8.0000004 0 0 0 120 112 A 17.999999 8.0000004 0 0 0 108 104.45898 L 108 14 C 108 10.676 105.324 8 102 8 z "
       style="fill:#607d8b;stroke:none;stroke-width:8.4853;stroke-linecap:round;stroke-linejoin:round;stroke-miterlimit:4;stroke-dasharray:none"
       id="path1666" />
    <path
       id="path1721"
       transform="scale(0.26458334)"
       d="M 115.82031,106.875 C 115.93968,107.24765 115.99973,107.62359 116,108 116,112.41828 107.94112,116 98,116 92.661946,115.99986 87.599379,114.94671 84.179688,113.125 85.440095,117.06892 93.037106,119.99982 102,120 111.94112,120 120,116.41828 120,112 119.9997,110.12687 118.52055,108.31318 115.82031,106.875 Z"
       style="fill:#455a64;stroke:none;stroke-width:8.4853;stroke-linecap:round;stroke-linejoin:round;stroke-miterlimit:4;stroke-dasharray:none" />
    <path
       transform="scale(0.26458334)"
       d="M 96 16 C 94.675394 16.756917 93.341663 17.404797 92 17.957031 L 92 76 C 65.3246 91.243078 35.018893 62.921859 8 74.042969 L 8 80 C 36 63.999998 67.999994 95.999995 96 80 L 96 16 z "
       style="fill:#b71c1c;stroke:none;stroke-width:8.00001;stroke-linecap:round;stroke-linejoin:round;stroke-miterlimit:4;stroke-dasharray:none"
       id="path1705" />
    <path
       transform="scale(0.26458334)"
       d="M 26.865234 11.386719 C 20.441162 11.297852 14.125 12.5 8 16 L 8 80 C 9.3246055 79.243082 10.658338 78.595204 12 78.042969 L 12 20 C 38.675393 4.7569174 68.981103 33.078138 96 21.957031 L 96 16 C 74.124995 28.499999 49.80835 11.704101 26.865234 11.386719 z "
       style="fill:#f44336;stroke:none;stroke-width:8.00001;stroke-linecap:round;stroke-linejoin:round;stroke-miterlimit:4;stroke-dasharray:none"
       id="path1700" />
    <path
       id="path1710"
       transform="scale(0.26458334)"
       d="M 102,8 C 98.676,8 96,10.676 96,14 V 104.45703 A 17.999999,8.0000005 0 0 0 84,112 17.999999,8.0000005 0 0 0 88.179688,117.125 17.999999,8.0000004 0 0 1 88,116 17.999999,8.0000004 0 0 1 100,108.45703 V 18 C 100,14.676 102.676,12 106,12 106.60699,12 107.19076,12.091696 107.74219,12.257812 106.99861,9.7895204 104.71701,8 102,8 Z"
       style="fill:#90a4ae;stroke:none;stroke-width:8.4853;stroke-linecap:round;stroke-linejoin:round;stroke-miterlimit:4;stroke-dasharray:none" />
    <path
       id="path1692"
       transform="scale(0.26458334)"
       d="M 103.74219,8.2578125 C 103.9083,8.809236 104,9.3930118 104,10 V 108.56835 C 105.41148,108.79014 106.75519,109.08933 108,109.45898 V 14 C 108,11.282988 106.21048,9.0013875 103.74219,8.2578125 Z"
       style="fill:#455a64;stroke:none;stroke-width:8.4853;stroke-linecap:round;stroke-linejoin:round;stroke-miterlimit:4;stroke-dasharray:none" />
  </g>
</svg>
