<svg xmlns="http://www.w3.org/2000/svg" viewBox="0 0 256 256">
  <path
    d="M226 228a32 12 0 01-32 12 32 12 0 01-32-12 32 12 0 0132-12 32 12 0 0132 12"
    fill="#cfd8dc"
  />
  <path
    d="M192.4 20h3.2c3.546 0 6.4 3.568 6.4 8v192c0 4.432-2.854 8-6.4 8h-3.2c-3.546 0-6.4-3.568-6.4-8V28c0-4.432 2.854-8 6.4-8z"
    fill="#b0bec5"
  />
  <path
    d="M210 32a16 16 0 01-16 16 16 16 0 01-16-16 16 16 0 0116-16 16 16 0 0116 16"
    fill="#cfd8dc"
  />
  <path
    d="M42 48.034s17.79 11.809 36 11.034c18.21-.775 55.534-21.851 72-22.068 16.466-.216 36 11.034 36 11.034-18.553 29.897-17.44 65.53 0 105.926 0 0-17.79-11.809-36-11.034-18.21.775-55.534 21.851-72 22.068-16.466.217-36-11.034-36-11.034 17.926-35.225 18.074-70.533 0-105.926z"
    fill="#b71c1c"
  />
</svg>
