<svg xmlns="http://www.w3.org/2000/svg" width="128" height="128" viewBox="0 0 33.867 33.867">
    <path d="M3.175 1.058h27.517c1.172 0 2.116.944 2.116 2.117v27.517a2.112 2.112 0 01-2.116 2.116H3.175a2.112 2.112 0 01-2.117-2.116V3.175c0-1.173.944-2.117 2.117-2.117z" fill="#7cb342"/>
    <path d="M8.467 27.517l-2.117-6.35L9.525 25.4l1.058-6.35 1.059 6.35 2.116-4.233 1.059 4.233 3.175-3.175-2.117 5.292zm9.525-12.7l-2.117-6.35L19.05 12.7l1.058-6.35 1.059 6.35 2.116-4.233 1.059 4.233 3.175-3.175-2.117 5.292z" fill="#558b2f"/>
    <path d="M31.562 1.246c.12.265.188.56.188.87v27.517a2.112 2.112 0 01-2.117 2.117H2.117c-.311 0-.606-.068-.871-.188a2.11 2.11 0 001.929 1.246h27.517a2.112 2.112 0 002.116-2.116V3.175a2.11 2.11 0 00-1.246-1.93z" fill="#689f38"/>
    <path d="M3.175 1.058a2.112 2.112 0 00-2.117 2.117v27.517c0 .861.51 1.598 1.246 1.929a2.115 2.115 0 01-.187-.871V4.233c0-1.172.944-2.116 2.116-2.116H31.75c.311 0 .605.068.87.187a2.11 2.11 0 00-1.928-1.246H3.175z" fill="#aed581"/>
</svg>
