<svg xmlns="http://www.w3.org/2000/svg" viewBox="0 0 128 128">
    <path fill="#8d6e63" d="M4 4c3.536-3.536 10.042.65 15 0 5.13-.672 9.825-4 15-4 5.175 0 10 2.667 15 4 5 1.333 9.825 4 15 4 5.175 0 10-2.667 15-4 5-1.333 9.825-4 15-4 5.175 0 9.87 3.328 15 4 4.958.65 11.464-3.536 15 0 3.536 3.536.65 10.042 0 15-.672 5.13-4 9.825-4 15 0 5.175 4 9.825 4 15 0 5.175-4 9.825-4 15 0 5.175 2.667 10 4 15 1.333 5 4 9.825 4 15 0 5.175-3.328 9.87-4 15-.65 4.958 3.536 11.464 0 15-3.536 3.536-10.042.65-15 0-5.13-.672-9.825-4-15-4-5.175 0-10 2.667-15 4-5 1.333-9.825 4-15 4-5.175 0-10-2.667-15-4-5-1.333-9.825-4-15-4-5.175 0-9.87 3.328-15 4-4.958.65-11.464 3.536-15 0-3.536-3.536-.65-10.042 0-15 .672-5.13 4-9.825 4-15 0-5.175-2.667-10-4-15-1.333-5-4-9.825-4-15 0-5.175 4-9.825 4-15 0-5.175-4-9.825-4-15 0-5.175 3.328-9.87 4-15C4.65 14.042.464 7.536 4 4z"/>
    <path fill="#6d4c41" d="M52 36a16 16 0 01-16 16 16 16 0 01-16-16 16 16 0 0116-16 16 16 0 0116 16zm52 28a12 12 0 01-12 12 12 12 0 01-12-12 12 12 0 0112-12 12 12 0 0112 12M52 96a8 8 0 01-8 8 8 8 0 01-8-8 8 8 0 018-8 8 8 0 018 8"/>
</svg>
