<svg xmlns="http://www.w3.org/2000/svg" viewBox="0 0 128 128">
    <path fill="#ffc107" d="M120 64a56 56 0 01-56 56A56 56 0 018 64 56 56 0 0164 8a56 56 0 0156 56"/>
    <path fill="#37474f" d="M72 88a8 8 0 01-8 8 8 8 0 01-8-8 8 8 0 018-8 8 8 0 018 8M43.945 44a4 4 0 00-2.773 1.172l-8 8a4 4 0 000 5.656 4 4 0 005.656 0L44 53.656l5.172 5.172a4 4 0 005.656 0 4 4 0 000-5.656l-8-8A4 4 0 0043.945 44zm40 0a4 4 0 00-2.773 1.172l-8 8a4 4 0 000 5.656 4 4 0 005.656 0L84 53.656l5.172 5.172a4 4 0 005.656 0 4 4 0 000-5.656l-8-8A4 4 0 0083.945 44z"/>
    <path fill="#d32f2f" d="M8 64L0 0l64 8z"/>
    <path fill="#e57373" d="M14.223 1.777L1.777 14.223l.889 7.111L21.334 2.666l-7.111-.889zm21.332 2.668l-31.11 31.11.889 7.111L42.666 5.334l-7.111-.889zm21.334 2.666L7.11 56.89 8 64 64 8l-7.111-.889z"/>
    <path fill="#f44336" d="M68.842 87.177l7.981 7.981a3.997 3.997 0 010 5.665 3.997 3.997 0 01-5.665 0l-7.981-7.981a3.997 3.997 0 010-5.665 3.997 3.997 0 015.665 0z"/>
    <path fill="#03a9f4" d="M107.688 82.004c-5.269-.103-10.509 2.034-13.83 6.705a13.8 13.8 0 00-2.409 10.103c.542 3.516 2.67 7.014 6.28 8.926 2.408 1.276 5.106 1.623 7.798 1.02 2.693-.603 5.635-2.635 6.573-5.934.75-2.642.088-4.319-1.29-6.138-.688-.91-1.801-1.939-3.54-2.227-1.74-.288-3.604.523-4.69 1.56a3.889 3.889 0 00-.586 4.913c-.196-.054-.473-.004-.605-.075-1.375-.728-2.003-1.788-2.225-3.226-.221-1.438.17-3.164 1.059-4.414 2.806-3.946 9.339-4.362 13.457-1.414 5.595 4.005 5.94 11.843 1.644 17.008-5.44 6.54-16.248 6.979-23 1.654l-2.01-1.809-14.97-14.97a3.993 3.993 0 00-5.658 0 3.993 3.993 0 000 5.658l14.97 14.97 2.828 2.262c10.008 7.892 25.417 7.346 33.848-2.79 6.98-8.395 6.282-21.595-3.103-28.313-2.792-1.999-6.118-3.162-9.487-3.418a18.53 18.53 0 00-1.055-.051z"/>
</svg>
