<svg xmlns="http://www.w3.org/2000/svg" width="128" height="128" viewBox="0 0 33.867 33.867">
    <path d="M31.75 16.933A14.817 14.817 0 0116.933 31.75 14.817 14.817 0 012.117 16.933 14.817 14.817 0 0116.933 2.117 14.817 14.817 0 0131.75 16.933" fill="#ffc107"/>
    <path d="M18.256 22.754a2.117 2.117 0 01-2.116 2.117 2.117 2.117 0 01-2.117-2.117 2.117 2.117 0 012.117-2.116 2.117 2.117 0 012.116 2.116" fill="#ffd54f"/>
    <path d="M19.315 23.813a2.117 2.117 0 01-2.117 2.116 2.117 2.117 0 01-2.117-2.116 2.117 2.117 0 012.117-2.117 2.117 2.117 0 012.117 2.117" fill="#ffa000"/>
    <path d="M18.785 23.283A2.117 2.117 0 0116.67 25.4a2.117 2.117 0 01-2.117-2.117 2.117 2.117 0 012.117-2.116 2.117 2.117 0 012.116 2.116" fill="#37474f"/>
    <path d="M16.933 2.117A14.817 14.817 0 002.117 16.933a14.817 14.817 0 004.882 10.993 14.817 14.817 0 01-3.824-9.934A14.817 14.817 0 0117.992 3.175a14.817 14.817 0 019.934 3.824 14.817 14.817 0 00-10.993-4.882z" fill="#ffd54f"/>
    <path d="M17.078 31.895a14.817 14.817 0 0014.817-14.817 14.817 14.817 0 00-4.883-10.993 14.817 14.817 0 013.824 9.935A14.817 14.817 0 0116.02 30.836a14.817 14.817 0 01-9.935-3.824 14.817 14.817 0 0010.993 4.883z" fill="#ffa000"/>
    <path d="M9.835 9.707a1.056 1.056 0 000 1.496l.968.968-.968.967a1.056 1.056 0 000 1.497 1.056 1.056 0 001.497 0l1.716-1.716a1.056 1.056 0 000-1.497l-1.716-1.715a1.056 1.056 0 00-1.497 0z" fill="#ffd54f"/>
    <path d="M10.893 10.765a1.056 1.056 0 000 1.497l.968.967-.968.968a1.056 1.056 0 000 1.496 1.056 1.056 0 001.497 0l1.716-1.715a1.056 1.056 0 000-1.497l-1.716-1.716a1.056 1.056 0 00-1.497 0z" fill="#ffa000"/>
    <path d="M10.364 10.236a1.056 1.056 0 000 1.496l.968.968-.968.968a1.056 1.056 0 000 1.496 1.056 1.056 0 001.497 0l1.716-1.716a1.056 1.056 0 000-1.497l-1.716-1.715a1.056 1.056 0 00-1.497 0z" fill="#37474f"/>
    <path d="M23.102 9.707a1.056 1.056 0 010 1.496l-.968.968.968.967a1.056 1.056 0 010 1.497 1.056 1.056 0 01-1.497 0L19.89 12.92a1.056 1.056 0 010-1.497l1.716-1.715a1.056 1.056 0 011.497 0z" fill="#ffd54f"/>
    <path d="M24.16 10.765a1.056 1.056 0 010 1.497l-.967.967.967.968a1.056 1.056 0 010 1.496 1.056 1.056 0 01-1.496 0l-1.716-1.715a1.056 1.056 0 010-1.497l1.716-1.716a1.056 1.056 0 011.496 0z" fill="#ffa000"/>
    <path d="M23.631 10.236a1.056 1.056 0 010 1.496l-.967.968.967.968a1.056 1.056 0 010 1.496 1.056 1.056 0 01-1.497 0l-1.716-1.716a1.056 1.056 0 010-1.497l1.716-1.715a1.056 1.056 0 011.497 0z" fill="#37474f"/>
</svg>
