<svg xmlns="http://www.w3.org/2000/svg" viewBox="0 0 128 128">
    <path fill="#ffc107" d="M120 64a56 56 0 01-56 56A56 56 0 018 64 56 56 0 0164 8a56 56 0 0156 56"/>
    <path fill="#37474f" d="M72 92a8 12 0 01-8 12 8 12 0 01-8-12 8 12 0 018-12 8 12 0 018 12M39.945 40a4 4 0 00-2.773 1.172 4 4 0 000 5.656L42.344 52l-5.172 5.172a4 4 0 000 5.656 4 4 0 005.656 0l8-8a4 4 0 000-5.656l-8-8A4 4 0 0039.945 40zm48 0a4 4 0 00-2.773 1.172l-8 8a4 4 0 000 5.656l8 8a4 4 0 005.656 0 4 4 0 000-5.656L85.656 52l5.172-5.172a4 4 0 000-5.656A4 4 0 0087.945 40z"/>
</svg>
