<?xml version="1.0" encoding="UTF-8" standalone="no"?>
<svg
   xmlns:dc="http://purl.org/dc/elements/1.1/"
   xmlns:cc="http://creativecommons.org/ns#"
   xmlns:rdf="http://www.w3.org/1999/02/22-rdf-syntax-ns#"
   xmlns:svg="http://www.w3.org/2000/svg"
   xmlns="http://www.w3.org/2000/svg"
   xmlns:sodipodi="http://sodipodi.sourceforge.net/DTD/sodipodi-0.dtd"
   xmlns:inkscape="http://www.inkscape.org/namespaces/inkscape"
   width="128"
   height="128"
   viewBox="0 0 33.866666 33.866668"
   version="1.1"
   id="svg8"
   inkscape:version="1.0 (4035a4f, 2020-05-01)"
   sodipodi:docname="pig.svg">
  <defs
     id="defs2" />
  <sodipodi:namedview
     id="base"
     pagecolor="#ffffff"
     bordercolor="#666666"
     borderopacity="1.0"
     inkscape:pageopacity="0.0"
     inkscape:pageshadow="2"
     inkscape:zoom="3.8510359"
     inkscape:cx="110.81321"
     inkscape:cy="41.606435"
     inkscape:document-units="px"
     inkscape:current-layer="layer1"
     inkscape:document-rotation="0"
     showgrid="true"
     units="px"
     inkscape:window-width="1777"
     inkscape:window-height="1130"
     inkscape:window-x="0"
     inkscape:window-y="25"
     inkscape:window-maximized="0"
     inkscape:snap-bbox="true"
     inkscape:snap-bbox-midpoints="true"
     inkscape:snap-grids="true"
     inkscape:snap-midpoints="true"
     inkscape:snap-smooth-nodes="true"
     inkscape:snap-intersection-paths="true"
     inkscape:object-paths="true"
     inkscape:snap-nodes="true"
     inkscape:snap-others="true"
     inkscape:snap-global="true"
     inkscape:bbox-paths="true"
     inkscape:bbox-nodes="true">
    <inkscape:grid
       type="xygrid"
       id="grid833"
       empspacing="4" />
    <inkscape:grid
       type="xygrid"
       id="grid835"
       spacingx="2.1166667"
       spacingy="2.1166667"
       empspacing="4"
       empcolor="#ff3f61"
       empopacity="0.25098039" />
  </sodipodi:namedview>
  <metadata
     id="metadata5">
    <rdf:RDF>
      <cc:Work
         rdf:about="">
        <dc:format>image/svg+xml</dc:format>
        <dc:type
           rdf:resource="http://purl.org/dc/dcmitype/StillImage" />
        <dc:title></dc:title>
      </cc:Work>
    </rdf:RDF>
  </metadata>
  <g
     inkscape:label="Layer 1"
     inkscape:groupmode="layer"
     id="layer1">
    <g
       transform="matrix(1.1666666,0,0,1.1666666,-2.8222216,-5.2916653)"
       id="g1012">
      <path
         id="path906"
         style="fill:#f8bbd0;stroke-width:1.9857;stroke-linecap:round;stroke-linejoin:round"
         d="M 26.35118,15.875423 C 23.768561,18.727049 21.788288,18.271018 20.27999,16.676647 18.771693,15.082273 18.306532,12.953314 20.889152,10.101691 23.471772,7.2500647 26.930906,6.3817994 29.632484,6.3499987 29.66192,9.2686666 28.9338,13.023798 26.35118,15.875423 Z"
         sodipodi:nodetypes="csccc" />
      <path
         id="path909"
         style="fill:#f06292;stroke-width:1.9857;stroke-linecap:round;stroke-linejoin:round"
         d="M 28.206148,8.5408752 C 24.873692,8.8629549 21.435547,10.693991 19.86192,14.0099 19.370145,15.238821 19.991496,16.598943 20.926514,17.349406 21.771383,18.13061 23.082611,18.239604 23.960181,17.451938 26.718339,15.544156 28.134653,11.974778 28.320764,8.5341386 L 28.230642,8.5394357 Z" />
      <path
         sodipodi:nodetypes="csccc"
         d="M 7.5154883,15.875423 C 10.098108,18.727049 12.07838,18.271018 13.586678,16.676647 15.094976,15.082273 15.560137,12.953314 12.977517,10.101691 10.394897,7.2500647 6.9357626,6.3817994 4.2341846,6.3499987 4.2047488,9.2686666 4.9328688,13.023798 7.5154883,15.875423 Z"
         style="fill:#f8bbd0;stroke-width:1.9857;stroke-linecap:round;stroke-linejoin:round"
         id="path917" />
      <path
         d="M 5.6605205,8.5408752 C 8.9929761,8.8629549 12.431122,10.693991 14.004748,14.0099 14.496524,15.238821 13.875172,16.598943 12.940154,17.349406 12.095285,18.13061 10.784057,18.239604 9.9064875,17.451938 7.1483289,15.544156 5.7320155,11.974778 5.5459043,8.5341386 L 5.6360268,8.5394357 Z"
         style="fill:#f06292;stroke-width:1.9857;stroke-linecap:round;stroke-linejoin:round"
         id="path919" />
      <path
         id="path867"
         style="fill:#f8bbd0;stroke-width:2.02656;stroke-linecap:round;stroke-linejoin:round"
         d="M 29.633334,22.048611 C 29.633334,29.809723 23.94735,31.75 16.933334,31.75 9.919317,31.75 4.2333334,29.809723 4.2333324,22.048611 4.2333316,15.619096 8.4666663,8.466667 16.933333,8.4666668 25.4,8.4666666 29.633334,15.619096 29.633334,22.048611 Z"
         sodipodi:nodetypes="sssss" />
      <path
         d="M 22.754168,15.875 A 1.5875001,1.5875001 0 0 1 21.166668,17.4625 1.5875001,1.5875001 0 0 1 19.579168,15.875 1.5875001,1.5875001 0 0 1 21.166668,14.2875 1.5875001,1.5875001 0 0 1 22.754168,15.875"
         style="fill:#fce4ec;stroke-width:2.11667;stroke-linecap:round;stroke-linejoin:round"
         id="circle892" />
      <path
         sodipodi:nodetypes="sssss"
         d="M 23.283331,23.63611 C 23.283331,20.813888 20.440339,20.108332 16.933331,20.108332 13.426325,20.108332 10.583333,20.813888 10.583333,23.63611 10.583333,25.974115 12.699999,28.574998 16.93333,28.574998 21.166663,28.574998 23.283331,25.974115 23.283331,23.63611 Z"
         style="fill:#f06292;stroke-width:0.864131;stroke-linecap:round;stroke-linejoin:round"
         id="path880" />
      <path
         d="M 14.816666,22.225 C 15.402982,22.225 15.874999,22.697017 15.874999,23.283334 V 24.341667 C 15.874999,24.927984 15.402982,25.400001 14.816666,25.400001 14.230349,25.400001 13.758332,24.927984 13.758332,24.341667 V 23.283334 C 13.758332,22.697017 14.230349,22.225 14.816666,22.225 Z"
         style="fill:#880e4f;stroke-width:2.11667;stroke-linecap:round;stroke-linejoin:round"
         id="rect882" />
      <path
         d="M 19.050002,22.225 C 19.636319,22.225 20.108335,22.697017 20.108335,23.283334 V 24.341667 C 20.108335,24.927984 19.636319,25.400001 19.050002,25.400001 18.463685,25.400001 17.991669,24.927984 17.991669,24.341667 V 23.283334 C 17.991669,22.697017 18.463685,22.225 19.050002,22.225 Z"
         style="fill:#880e4f;stroke-width:2.11667;stroke-linecap:round;stroke-linejoin:round"
         id="rect884" />
      <path
         d="M 13.229167,15.875 A 1.5875001,1.5875001 0 0 1 11.641666,17.4625 1.5875001,1.5875001 0 0 1 10.054166,15.875 1.5875001,1.5875001 0 0 1 11.641666,14.2875 1.5875001,1.5875001 0 0 1 13.229167,15.875"
         style="fill:#fce4ec;stroke-width:2.11667;stroke-linecap:round;stroke-linejoin:round"
         id="circle890" />
      <path
         d="M 14.287501,16.933334 A 1.5875001,1.5875001 0 0 1 12.700001,18.520834 1.5875001,1.5875001 0 0 1 11.112501,16.933334 1.5875001,1.5875001 0 0 1 12.700001,15.345834 1.5875001,1.5875001 0 0 1 14.287501,16.933334"
         style="fill:#f48fb1;stroke-width:2.11667;stroke-linecap:round;stroke-linejoin:round"
         id="circle894" />
      <path
         d="M 13.758334,16.404167 A 1.5875001,1.5875001 0 0 1 12.170834,17.991667 1.5875001,1.5875001 0 0 1 10.583333,16.404167 1.5875001,1.5875001 0 0 1 12.170834,14.816667 1.5875001,1.5875001 0 0 1 13.758334,16.404167"
         style="fill:#37474f;stroke-width:2.11667;stroke-linecap:round;stroke-linejoin:round"
         id="path886" />
      <path
         d="M 23.812502,16.933334 A 1.5875001,1.5875001 0 0 1 22.225002,18.520834 1.5875001,1.5875001 0 0 1 20.637502,16.933334 1.5875001,1.5875001 0 0 1 22.225002,15.345834 1.5875001,1.5875001 0 0 1 23.812502,16.933334"
         style="fill:#f48fb1;stroke-width:2.11667;stroke-linecap:round;stroke-linejoin:round"
         id="circle900" />
      <path
         d="M 23.283333,16.404167 A 1.5875001,1.5875001 0 0 1 21.695833,17.991667 1.5875001,1.5875001 0 0 1 20.108333,16.404167 1.5875001,1.5875001 0 0 1 21.695833,14.816667 1.5875001,1.5875001 0 0 1 23.283333,16.404167"
         style="fill:#37474f;stroke-width:2.11667;stroke-linecap:round;stroke-linejoin:round"
         id="circle888" />
      <path
         id="path927"
         style="fill:#f48fb1;stroke-width:0.864132;stroke-linecap:round;stroke-linejoin:round"
         d="M 16.933334,20.108334 C 13.426328,20.108334 10.583334,20.814062 10.583334,23.636284 10.583334,24.831871 11.138232,26.095258 12.245248,27.045378 11.493177,26.180965 11.1125,25.150898 11.1125,24.165451 11.1125,21.343229 13.955494,20.637501 17.4625,20.637501 19.643117,20.637501 21.566371,20.910779 22.709725,21.795569 21.708244,20.487305 19.499401,20.108334 16.933334,20.108334 Z" />
      <path
         id="path933"
         style="fill:#ec407a;stroke-width:0.864132;stroke-linecap:round;stroke-linejoin:round"
         d="M 22.180559,21.266403 C 22.547788,21.746125 22.754167,22.349906 22.754167,23.107117 22.754167,25.445122 20.6375,28.045834 16.404167,28.045834 14.335638,28.045834 12.773867,27.424079 11.716081,26.516212 12.748321,27.702646 14.484313,28.575001 16.933334,28.575001 21.166667,28.575001 23.283334,25.974289 23.283334,23.636284 23.283334,22.568886 22.876021,21.804589 22.180559,21.266403 Z" />
      <path
         id="path938"
         style="fill:#fce4ec;stroke-width:2.02656;stroke-linecap:round;stroke-linejoin:round"
         d="M 16.933334,8.4666669 C 8.4666669,8.4666671 4.2333326,15.619269 4.2333334,22.048784 4.233334,25.271862 5.216101,27.488434 6.8652143,28.981694 5.5374343,27.508206 4.7625004,25.439828 4.7625001,22.577951 4.7624993,16.148435 8.9958341,8.9958338 17.4625,8.9958336 21.018298,8.9958336 23.824345,10.260052 25.886793,12.199772 23.78573,9.9633029 20.803192,8.4666669 16.933334,8.4666669 Z" />
      <path
         id="path943"
         style="fill:#f48fb1;stroke-width:2.02656;stroke-linecap:round;stroke-linejoin:round"
         d="M 25.357626,11.670606 C 27.853373,14.327195 29.104167,18.028839 29.104167,21.519617 29.104167,29.280729 23.418183,31.220834 16.404167,31.220834 12.30297,31.220834 8.657968,30.55501 6.3360476,28.452528 8.6090678,30.974986 12.505706,31.750001 16.933334,31.750001 23.94735,31.750001 29.633334,29.809896 29.633334,22.048784 29.633334,18.319512 28.206047,14.349531 25.357626,11.670606 Z" />
    </g>
  </g>
</svg>
