<?xml version="1.0" encoding="UTF-8" standalone="no"?>
<svg
   xmlns:dc="http://purl.org/dc/elements/1.1/"
   xmlns:cc="http://creativecommons.org/ns#"
   xmlns:rdf="http://www.w3.org/1999/02/22-rdf-syntax-ns#"
   xmlns:svg="http://www.w3.org/2000/svg"
   xmlns="http://www.w3.org/2000/svg"
   xmlns:sodipodi="http://sodipodi.sourceforge.net/DTD/sodipodi-0.dtd"
   xmlns:inkscape="http://www.inkscape.org/namespaces/inkscape"
   sodipodi:docname="pig.svg"
   inkscape:version="1.0 (4035a4f, 2020-05-01)"
   id="svg8"
   version="1.1"
   viewBox="0 0 128 128"
   height="128"
   width="128">
  <defs
     id="defs2" />
  <sodipodi:namedview
     inkscape:bbox-nodes="true"
     inkscape:bbox-paths="true"
     inkscape:snap-bbox="true"
     inkscape:window-maximized="0"
     inkscape:window-y="25"
     inkscape:window-x="0"
     inkscape:window-height="1359"
     inkscape:window-width="2560"
     units="px"
     showgrid="true"
     inkscape:document-rotation="0"
     inkscape:current-layer="layer1"
     inkscape:document-units="px"
     inkscape:cy="73.047612"
     inkscape:cx="126.7811"
     inkscape:zoom="7.542801"
     inkscape:pageshadow="2"
     inkscape:pageopacity="0.0"
     borderopacity="1.0"
     bordercolor="#666666"
     pagecolor="#ffffff"
     id="base">
    <inkscape:grid
       empspacing="4"
       id="grid10"
       type="xygrid" />
    <inkscape:grid
       empspacing="2"
       spacingy="8"
       spacingx="8"
       id="grid12"
       type="xygrid" />
  </sodipodi:namedview>
  <metadata
     id="metadata5">
    <rdf:RDF>
      <cc:Work
         rdf:about="">
        <dc:format>image/svg+xml</dc:format>
        <dc:type
           rdf:resource="http://purl.org/dc/dcmitype/StillImage" />
        <dc:title></dc:title>
      </cc:Work>
    </rdf:RDF>
  </metadata>
  <g
     id="layer1"
     inkscape:groupmode="layer"
     inkscape:label="Layer 1">
    <path
       sodipodi:nodetypes="ssscs"
       d="M 105.52156,45.385623 C 98.281982,56.107302 89.214473,54.59174 81.646335,50.855645 74.078198,47.11955 68.009421,41.162923 75.248986,30.441244 83.987922,17.499031 98.110272,11.528467 107.86314,12.029009 113.24655,19.000656 114.26049,32.44341 105.52156,45.385623 Z"
       style="fill:#f8bbd0;stroke:none;stroke-width:8.08078;stroke-linecap:round;stroke-linejoin:round;stroke-miterlimit:4;stroke-dasharray:none"
       id="path1252" />
    <path
       id="path1255"
       style="fill:#f48fb1;stroke:none;stroke-width:6.68372;stroke-linecap:round;stroke-linejoin:round;stroke-miterlimit:4;stroke-dasharray:none"
       d="M 100.56608,49.049326 C 93.869031,59.621447 87.231272,59.04802 81.980526,56.285035 76.72978,53.52205 72.866036,48.569509 79.563091,37.997388 87.647147,25.23571 98.960934,18.427436 106.23269,18 109.46243,23.953405 108.65014,36.287647 100.56608,49.049326 Z"
       sodipodi:nodetypes="ssscs" />
    <path
       id="path1259"
       style="fill:#f8bbd0;stroke:none;stroke-width:8.08078;stroke-linecap:round;stroke-linejoin:round;stroke-miterlimit:4;stroke-dasharray:none"
       d="M 22.47844,45.385623 C 29.718018,56.107302 38.785527,54.59174 46.35366,50.855645 53.9218,47.11955 59.99058,41.162923 52.75101,30.441244 44.01208,17.499031 29.889728,11.528467 20.13686,12.029009 14.75345,19.000656 13.73951,32.44341 22.47844,45.385623 Z"
       sodipodi:nodetypes="ssscs" />
    <path
       sodipodi:nodetypes="ssscs"
       d="M 27.43392,49.049326 C 34.130969,59.621447 40.768728,59.04802 46.01947,56.285035 51.27022,53.52205 55.13396,48.569509 48.43691,37.997388 40.352853,25.23571 29.039066,18.427436 21.76731,18 18.53757,23.953405 19.34986,36.287647 27.43392,49.049326 Z"
       style="fill:#f48fb1;stroke:none;stroke-width:6.68372;stroke-linecap:round;stroke-linejoin:round;stroke-miterlimit:4;stroke-dasharray:none"
       id="path1261" />
    <path
       sodipodi:nodetypes="aaaaa"
       d="M 63.938552,20 C 32.789882,20.017255 0.66013001,65.423552 9.4828658,94.879996 15.013402,113.34478 44.477641,115.99999 64.003203,115.99999 83.528766,115.99999 113.00352,113.34784 118.52354,94.879996 127.3366,65.394894 95.112359,19.982731 63.938552,20 Z"
       style="fill:#f8bbd0;stroke:none;stroke-width:7.87604;stroke-linecap:round;stroke-linejoin:round;stroke-miterlimit:4;stroke-dasharray:none"
       id="path1231" />
    <path
       id="path1238"
       style="fill:#f48fb1;stroke:none;stroke-width:3.21538;stroke-linecap:round;stroke-linejoin:round;stroke-miterlimit:4;stroke-dasharray:none"
       d="M 63.969276,103.99999 C 48.394941,103.99424 32.330065,88.85881 36.741433,79.039994 39.506701,72.885066 54.23882,71.999996 64.001601,71.999996 73.764383,71.999996 88.501761,72.884046 91.261772,79.039994 95.668298,88.868362 79.55618,104.00575 63.969276,103.99999 Z"
       sodipodi:nodetypes="aaaaa" />
    <path
       d="M 60,86 A 4,6 0 0 1 56,92 4,6 0 0 1 52,86 4,6 0 0 1 56,80 4,6 0 0 1 60,86 Z"
       style="fill:#f06292;stroke:none;stroke-width:8;stroke-linecap:round;stroke-linejoin:round;stroke-miterlimit:4;stroke-dasharray:none"
       id="path1240" />
    <path
       d="M 76,86 A 4,6 0 0 1 72,92 4,6 0 0 1 68,86 4,6 0 0 1 72,80 4,6 0 0 1 76,86"
       style="fill:#f06292;stroke:none;stroke-width:8;stroke-linecap:round;stroke-linejoin:round;stroke-miterlimit:4;stroke-dasharray:none"
       id="ellipse1242" />
    <path
       d="M 52,54 A 6,6 0 0 1 46,60 6,6 0 0 1 40,54 6,6 0 0 1 46,48 6,6 0 0 1 52,54 Z"
       style="fill:#f06292;stroke:none;stroke-width:8;stroke-linecap:round;stroke-linejoin:round;stroke-miterlimit:4;stroke-dasharray:none"
       id="path1244" />
    <path
       d="M 52,54 A 6,6 0 0 1 46,60 6,6 0 0 1 40,54 6,6 0 0 1 46,48 6,6 0 0 1 52,54"
       style="fill:#f06292;stroke:none;stroke-width:8;stroke-linecap:round;stroke-linejoin:round;stroke-miterlimit:4;stroke-dasharray:none"
       id="circle1246" />
    <path
       d="M 88,54 A 6,6 0 0 1 82,60 6,6 0 0 1 76,54 6,6 0 0 1 82,48 6,6 0 0 1 88,54"
       style="fill:#f06292;stroke:none;stroke-width:8;stroke-linecap:round;stroke-linejoin:round;stroke-miterlimit:4;stroke-dasharray:none"
       id="circle1248" />
  </g>
</svg>
