<svg xmlns="http://www.w3.org/2000/svg" width="128" height="128" viewBox="0 0 33.867 33.867">
    <path d="M27.92 13.23c-3.012 3.327-5.323 2.795-7.082.934-1.76-1.86-2.303-4.343.71-7.67 3.014-3.327 7.05-4.34 10.201-4.377.034 3.405-.815 7.786-3.828 11.113z" fill="#f8bbd0"/>
    <path d="M30.085 4.673c-3.888.375-7.9 2.512-9.735 6.38-.574 1.434.151 3.02 1.242 3.896.986.912 2.515 1.039 3.54.12 3.217-2.226 4.87-6.39 5.087-10.404l-.105.006z" fill="#f06292"/>
    <path d="M5.946 13.23c3.013 3.327 5.323 2.795 7.083.934 1.76-1.86 2.302-4.343-.71-7.67-3.014-3.327-7.05-4.34-10.201-4.377-.035 3.405.815 7.786 3.828 11.113z" fill="#f8bbd0"/>
    <path d="M3.782 4.673c3.888.375 7.899 2.512 9.735 6.38.573 1.434-.152 3.02-1.242 3.896-.986.912-2.516 1.039-3.54.12-3.218-2.226-4.87-6.39-5.087-10.404l.105.006z" fill="#f06292"/>
    <path d="M31.75 20.432c0 9.054-6.634 11.318-14.817 11.318S2.117 29.486 2.117 20.432c0-7.501 4.939-15.846 14.816-15.846 9.878 0 14.817 8.345 14.817 15.846z" fill="#f8bbd0"/>
    <path d="M23.724 13.23a1.852 1.852 0 01-1.852 1.851 1.852 1.852 0 01-1.852-1.852 1.852 1.852 0 011.852-1.852 1.852 1.852 0 011.852 1.852" fill="#fce4ec"/>
    <path d="M24.342 22.284c0-3.293-3.317-4.116-7.409-4.116-4.091 0-7.408.823-7.408 4.116 0 2.727 2.47 5.762 7.408 5.762 4.94 0 7.409-3.035 7.409-5.762z" fill="#f06292"/>
    <path d="M14.464 20.637c.684 0 1.235.551 1.235 1.235v1.235c0 .684-.551 1.235-1.235 1.235s-1.235-.551-1.235-1.235v-1.235c0-.684.55-1.235 1.235-1.235zm4.939 0c.684 0 1.235.551 1.235 1.235v1.235c0 .684-.551 1.235-1.235 1.235s-1.235-.551-1.235-1.235v-1.235c0-.684.55-1.235 1.235-1.235z" fill="#880e4f"/>
    <path d="M12.612 13.23a1.852 1.852 0 01-1.852 1.851 1.852 1.852 0 01-1.852-1.852 1.852 1.852 0 011.852-1.852 1.852 1.852 0 011.852 1.852" fill="#fce4ec"/>
    <path d="M13.847 14.464a1.852 1.852 0 01-1.853 1.852 1.852 1.852 0 01-1.852-1.852 1.852 1.852 0 011.852-1.852 1.852 1.852 0 011.853 1.852" fill="#f48fb1"/>
    <path d="M13.23 13.847a1.852 1.852 0 01-1.853 1.852 1.852 1.852 0 01-1.852-1.852 1.852 1.852 0 011.852-1.853 1.852 1.852 0 011.852 1.853" fill="#37474f"/>
    <path d="M24.959 14.464a1.852 1.852 0 01-1.852 1.852 1.852 1.852 0 01-1.852-1.852 1.852 1.852 0 011.852-1.852 1.852 1.852 0 011.852 1.852" fill="#f48fb1"/>
    <path d="M24.342 13.847a1.852 1.852 0 01-1.852 1.852 1.852 1.852 0 01-1.853-1.852 1.852 1.852 0 011.853-1.853 1.852 1.852 0 011.852 1.853" fill="#37474f"/>
    <path d="M16.933 18.168c-4.091 0-7.408.823-7.408 4.116 0 1.395.647 2.869 1.939 3.977-.878-1.008-1.322-2.21-1.322-3.36 0-3.292 3.317-4.116 7.409-4.116 2.544 0 4.788.32 6.121 1.351-1.168-1.526-3.745-1.968-6.739-1.968z" fill="#f48fb1"/>
    <path d="M23.055 19.52c.429.559.67 1.263.67 2.147 0 2.727-2.47 5.761-7.409 5.761-2.413 0-4.235-.725-5.47-1.784 1.205 1.384 3.23 2.402 6.087 2.402 4.94 0 7.409-3.034 7.409-5.762 0-1.245-.476-2.137-1.287-2.765z" fill="#ec407a"/>
    <path d="M16.933 4.586c-9.877 0-14.816 8.345-14.816 15.846 0 3.76 1.146 6.346 3.07 8.088-1.549-1.719-2.453-4.132-2.453-7.47 0-7.502 4.939-15.847 14.817-15.847 4.148 0 7.422 1.475 9.828 3.738-2.451-2.609-5.93-4.355-10.446-4.355z" fill="#fce4ec"/>
    <path d="M26.762 8.324c2.911 3.1 4.37 7.418 4.37 11.49 0 9.055-6.633 11.319-14.816 11.319-4.785 0-9.037-.777-11.746-3.23 2.652 2.943 7.198 3.847 12.363 3.847 8.183 0 14.817-2.263 14.817-11.318 0-4.35-1.665-8.983-4.988-12.108z" fill="#f48fb1"/>
</svg>
