<svg
  xmlns="http://www.w3.org/2000/svg"
  height="256"
  width="256"
  viewBox="0 0 256 256"
>
  <g transform="matrix(.99048 0 0 .95989 2.728 3.225)">
    <path
      d="M227.407 33.249a40.727 48 45 01-12.442 52.04 40.727 48 45 01-52.04 12.442 40.727 48 45 0112.442-52.04 40.727 48 45 0152.04-12.442z"
      fill="#f8bbd0"
    />
    <path
      d="M217.972 45.855a34.91 48 45 01-15.27 49.212 34.91 48 45 01-49.212 15.27 34.91 48 45 0115.27-49.211 34.91 48 45 0149.212-15.27z"
      fill="#f06292"
    />
    <path
      d="M24.749 33.249a48 40.727 45 0012.442 52.04A48 40.727 45 0089.23 97.73a48 40.727 45 00-12.442-52.04 48 40.727 45 00-52.04-12.442z"
      fill="#f8bbd0"
    />
    <path
      d="M34.184 45.855a48 34.91 45 0015.27 49.212 48 34.91 45 0049.212 15.27 48 34.91 45 00-15.27-49.211 48 34.91 45 00-49.212-15.27z"
      fill="#f06292"
    />
    <path
      d="M128 230c-57.148 0-103.477-12.8-103.477-64C24.523 89.2 70.852 38 128 38s103.476 51.2 103.476 128c0 51.2-46.328 64-103.476 64z"
      fill="#f8bbd0"
    />
    <path
      d="M128 134c-35.346 0-64 5.867-64 29.333C64 198.533 92.654 222 128 222c35.346 0 64-23.467 64-58.667C192 139.867 163.346 134 128 134z"
      fill="#f06292"
    />
    <circle cx="66" cy="116" r="14" fill="#37474f" />
    <circle r="14" cy="116" cx="190" fill="#37474f" />
    <rect width="20" height="36" x="92" y="158" ry="10" fill="#c2185b" />
    <rect
      ry="10"
      y="157.971"
      x="144.545"
      height="36"
      width="20"
      fill="#c2185b"
    />
  </g>
</svg>
