<?xml version="1.0" encoding="UTF-8" standalone="no"?>
<svg
  xmlns="http://www.w3.org/2000/svg"
  id="svg8"
  version="1.1"
  viewBox="0 0 256 256"
  height="256"
  width="256"
>
  <g id="layer1">
    <g
      transform="matrix(0.99047838,0,0,0.95988943,2.7275316,3.2254313)"
      id="g890"
    >
      <path
        d="M 227.40699,33.248561 A 40.727273,48 45 0 1 214.96495,85.288582 40.727273,48 45 0 1 162.92493,97.73062 40.727273,48 45 0 1 175.36697,45.690602 40.727273,48 45 0 1 227.40699,33.248561 Z"
        style="
          fill: #f8bbd0;
          stroke: none;
          stroke-width: 1.06597;
          stroke-linecap: round;
          stroke-linejoin: round;
        "
        id="path876"
      />
      <path
        id="path878"
        style="
          fill: #f06292;
          stroke: none;
          stroke-width: 0.986896;
          stroke-linecap: round;
          stroke-linejoin: round;
        "
        d="M 217.97196,45.855163 A 34.909091,48 45 0 1 202.70149,95.06676 34.909091,48 45 0 1 153.4899,110.33722 34.909091,48 45 0 1 168.76037,61.125631 34.909091,48 45 0 1 217.97196,45.855163 Z"
      />
      <path
        id="path852"
        style="
          fill: #f8bbd0;
          stroke: none;
          stroke-width: 1.06597;
          stroke-linecap: round;
          stroke-linejoin: round;
        "
        d="M 24.748563,33.248561 A 48,40.727273 45 0 0 37.190604,85.288582 48,40.727273 45 0 0 89.230625,97.73062 48,40.727273 45 0 0 76.788584,45.690602 48,40.727273 45 0 0 24.748563,33.248561 Z"
      />
      <path
        d="M 34.183592,45.855163 A 48,34.909091 45 0 0 49.45406,95.06676 48,34.909091 45 0 0 98.665651,110.33722 48,34.909091 45 0 0 83.395185,61.125631 48,34.909091 45 0 0 34.183592,45.855163 Z"
        style="
          fill: #f06292;
          stroke: none;
          stroke-width: 0.986896;
          stroke-linecap: round;
          stroke-linejoin: round;
        "
        id="path862"
      />
      <path
        id="path839"
        style="
          fill: #f8bbd0;
          stroke: none;
          stroke-width: 1.47436;
          stroke-linecap: round;
          stroke-linejoin: round;
        "
        d="M 128,230 C 70.851507,230 24.523499,217.2 24.523499,166 24.523499,89.2 70.851507,38 128,38 185.14849,38 231.4765,89.2 231.4765,166 231.4765,217.2 185.14849,230 128,230 Z"
      />
      <path
        d="M 128,134 C 92.653776,134 63.999999,139.86667 63.999999,163.33333 63.999999,198.53334 92.653776,222 128,222 163.34622,222 192,198.53334 192,163.33333 192,139.86667 163.34622,134 128,134 Z"
        style="
          fill: #f06292;
          stroke: none;
          stroke-width: 0.784988;
          stroke-linecap: round;
          stroke-linejoin: round;
        "
        id="path842"
      />
      <circle
        style="
          fill: #37474f;
          stroke: none;
          stroke-width: 0.944882;
          stroke-linecap: round;
          stroke-linejoin: round;
        "
        id="path844"
        cx="66"
        cy="116"
        r="14"
      />
      <circle
        r="14"
        cy="116"
        cx="190"
        id="circle846"
        style="
          fill: #37474f;
          stroke: none;
          stroke-width: 0.944882;
          stroke-linecap: round;
          stroke-linejoin: round;
        "
      />
      <rect
        style="
          fill: #c2185b;
          stroke: none;
          stroke-width: 0.944882;
          stroke-linecap: round;
          stroke-linejoin: round;
        "
        id="rect848"
        width="20"
        height="36"
        x="92"
        y="158"
        ry="10"
      />
      <rect
        ry="10"
        y="157.97086"
        x="144.54544"
        height="36"
        width="20"
        id="rect850"
        style="
          fill: #c2185b;
          stroke: none;
          stroke-width: 0.944882;
          stroke-linecap: round;
          stroke-linejoin: round;
        "
      />
    </g>
  </g>
</svg>
