<svg xmlns="http://www.w3.org/2000/svg" viewBox="0 0 128 128">
    <path fill="#f8bbd0" d="M105.522 45.386c-7.24 10.721-16.308 9.206-23.876 5.47-7.568-3.736-13.637-9.693-6.397-20.415C83.988 17.5 98.11 11.528 107.863 12.03c5.384 6.972 6.397 20.414-2.341 33.357z"/>
    <path fill="#f48fb1" d="M100.566 49.05c-6.697 10.571-13.335 9.998-18.585 7.235-5.251-2.763-9.115-7.715-2.418-18.288 8.084-12.761 19.398-19.57 26.67-19.997 3.23 5.953 2.417 18.288-5.667 31.05z"/>
    <path fill="#f8bbd0" d="M22.478 45.386c7.24 10.721 16.308 9.206 23.876 5.47 7.568-3.736 13.637-9.693 6.397-20.415C44.012 17.5 29.89 11.528 20.137 12.03c-5.384 6.972-6.397 20.414 2.341 33.357z"/>
    <path fill="#f48fb1" d="M27.434 49.05c6.697 10.571 13.335 9.998 18.585 7.235 5.251-2.763 9.115-7.715 2.418-18.288C40.353 25.236 29.039 18.427 21.767 18c-3.23 5.953-2.417 18.288 5.667 31.05z"/>
    <path fill="#f8bbd0" d="M63.939 20C32.789 20.017.66 65.424 9.483 94.88c5.53 18.465 34.995 21.12 54.52 21.12 19.526 0 49-2.652 54.52-21.12C127.338 65.395 95.114 19.983 63.94 20z"/>
    <path fill="#f48fb1" d="M63.97 104c-15.575-.006-31.64-15.141-27.229-24.96C39.507 72.885 54.24 72 64.001 72c9.763 0 24.5.884 27.26 7.04 4.407 9.828-11.705 24.966-27.292 24.96z"/>
    <path fill="#f06292" d="M60 86a4 6 0 01-4 6 4 6 0 01-4-6 4 6 0 014-6 4 6 0 014 6zm16 0a4 6 0 01-4 6 4 6 0 01-4-6 4 6 0 014-6 4 6 0 014 6M52 54a6 6 0 01-6 6 6 6 0 01-6-6 6 6 0 016-6 6 6 0 016 6z"/>
    <path fill="#455a64" d="M52 54a6 6 0 01-6 6 6 6 0 01-6-6 6 6 0 016-6 6 6 0 016 6m36 0a6 6 0 01-6 6 6 6 0 01-6-6 6 6 0 016-6 6 6 0 016 6"/>
</svg>
