<svg
  xmlns="http://www.w3.org/2000/svg"
  width="128"
  height="128"
  viewBox="0 0 33.867 33.867"
>
  <path
    d="M31.75 16.933A14.817 14.817 0 0116.933 31.75 14.817 14.817 0 012.117 16.933 14.817 14.817 0 0116.933 2.117 14.817 14.817 0 0131.75 16.933"
    fill="#ffc107"
  />
  <path
    d="M13.23 12.17a2.117 2.117 0 01-2.118 2.118 2.117 2.117 0 01-2.116-2.117 2.117 2.117 0 012.116-2.117 2.117 2.117 0 012.117 2.117"
    fill="#ffd54f"
  />
  <path
    d="M14.287 13.23a2.117 2.117 0 01-2.116 2.116 2.117 2.117 0 01-2.117-2.117 2.117 2.117 0 012.117-2.116 2.117 2.117 0 012.117 2.116"
    fill="#ffa000"
  />
  <path
    d="M13.758 12.7a2.117 2.117 0 01-2.116 2.117A2.117 2.117 0 019.525 12.7a2.117 2.117 0 012.117-2.117 2.117 2.117 0 012.116 2.117"
    fill="#37474f"
  />
  <path
    d="M23.813 12.17a2.117 2.117 0 01-2.117 2.118 2.117 2.117 0 01-2.117-2.117 2.117 2.117 0 012.117-2.117 2.117 2.117 0 012.116 2.117"
    fill="#ffd54f"
  />
  <path
    d="M24.87 13.23a2.117 2.117 0 01-2.116 2.116 2.117 2.117 0 01-2.116-2.117 2.117 2.117 0 012.116-2.116 2.117 2.117 0 012.117 2.116"
    fill="#ffa000"
  />
  <path
    d="M24.342 12.7a2.117 2.117 0 01-2.117 2.117 2.117 2.117 0 01-2.117-2.117 2.117 2.117 0 012.117-2.117 2.117 2.117 0 012.117 2.117"
    fill="#37474f"
  />
  <path
    d="M16.933 2.117A14.817 14.817 0 002.117 16.933a14.817 14.817 0 004.882 10.993 14.817 14.817 0 01-3.824-9.934A14.817 14.817 0 0117.992 3.175a14.817 14.817 0 019.934 3.824 14.817 14.817 0 00-10.993-4.882z"
    fill="#ffd54f"
  />
  <path
    d="M17.078 31.895a14.817 14.817 0 0014.817-14.817 14.817 14.817 0 00-4.883-10.993 14.817 14.817 0 013.824 9.935A14.817 14.817 0 0116.02 30.836a14.817 14.817 0 01-9.935-3.824 14.817 14.817 0 0010.993 4.883z"
    fill="#ffa000"
  />
  <path
    d="M10.381 21.258a1.134 1.134 0 00-.799.332 1.134 1.134 0 000 1.603 9.602 9.602 0 0013.578 0 1.134 1.134 0 000-1.603 1.134 1.134 0 00-1.603 0 7.331 7.331 0 01-10.37 0 1.134 1.134 0 00-.806-.332z"
    style="
      line-height: normal;
      font-variant-ligatures: normal;
      font-variant-position: normal;
      font-variant-caps: normal;
      font-variant-numeric: normal;
      font-variant-alternates: normal;
      font-variant-east-asian: normal;
      font-feature-settings: normal;
      font-variation-settings: normal;
      text-indent: 0;
      text-align: start;
      text-decoration-line: none;
      text-decoration-style: solid;
      text-decoration-color: #000;
      text-transform: none;
      text-orientation: mixed;
      white-space: normal;
      shape-padding: 0;
      shape-margin: 0;
      inline-size: 0;
      isolation: auto;
      mix-blend-mode: normal;
      solid-color: #000;
      solid-opacity: 1;
    "
    color="#000"
    font-weight="400"
    font-family="sans-serif"
    overflow="visible"
    fill="#ffd54f"
  />
  <path
    d="M11.44 22.316a1.134 1.134 0 00-.8.332 1.134 1.134 0 000 1.604 9.602 9.602 0 0013.579 0 1.134 1.134 0 000-1.604 1.134 1.134 0 00-1.604 0 7.331 7.331 0 01-10.369 0 1.134 1.134 0 00-.807-.332z"
    style="
      line-height: normal;
      font-variant-ligatures: normal;
      font-variant-position: normal;
      font-variant-caps: normal;
      font-variant-numeric: normal;
      font-variant-alternates: normal;
      font-variant-east-asian: normal;
      font-feature-settings: normal;
      font-variation-settings: normal;
      text-indent: 0;
      text-align: start;
      text-decoration-line: none;
      text-decoration-style: solid;
      text-decoration-color: #000;
      text-transform: none;
      text-orientation: mixed;
      white-space: normal;
      shape-padding: 0;
      shape-margin: 0;
      inline-size: 0;
      isolation: auto;
      mix-blend-mode: normal;
      solid-color: #000;
      solid-opacity: 1;
    "
    color="#000"
    font-weight="400"
    font-family="sans-serif"
    overflow="visible"
    fill="#ffa000"
  />
  <path
    style="
      line-height: normal;
      font-variant-ligatures: normal;
      font-variant-position: normal;
      font-variant-caps: normal;
      font-variant-numeric: normal;
      font-variant-alternates: normal;
      font-variant-east-asian: normal;
      font-feature-settings: normal;
      font-variation-settings: normal;
      text-indent: 0;
      text-align: start;
      text-decoration-line: none;
      text-decoration-style: solid;
      text-decoration-color: #000;
      text-transform: none;
      text-orientation: mixed;
      white-space: normal;
      shape-padding: 0;
      shape-margin: 0;
      inline-size: 0;
      isolation: auto;
      mix-blend-mode: normal;
      solid-color: #000;
      solid-opacity: 1;
    "
    d="M10.91 21.787a1.134 1.134 0 00-.799.332 1.134 1.134 0 000 1.604 9.602 9.602 0 0013.578 0 1.134 1.134 0 000-1.604 1.134 1.134 0 00-1.603 0 7.331 7.331 0 01-10.37 0 1.134 1.134 0 00-.806-.332z"
    color="#000"
    font-weight="400"
    font-family="sans-serif"
    overflow="visible"
    fill="#37474f"
  />
</svg>
